<?xml version="1.0" encoding="UTF-8" standalone="no"?>
<!-- Generator: Adobe Illustrator 16.0.0, SVG Export Plug-In . SVG Version: 6.00 Build 0)  -->

<svg
   xmlns:dc="http://purl.org/dc/elements/1.1/"
   xmlns:cc="http://creativecommons.org/ns#"
   xmlns:rdf="http://www.w3.org/1999/02/22-rdf-syntax-ns#"
   xmlns:svg="http://www.w3.org/2000/svg"
   xmlns="http://www.w3.org/2000/svg"
   xmlns:sodipodi="http://sodipodi.sourceforge.net/DTD/sodipodi-0.dtd"
   xmlns:inkscape="http://www.inkscape.org/namespaces/inkscape"
   version="1.1"
   id="Layer_1"
   x="0px"
   y="0px"
   width="832.03351"
   height="185.493"
   viewBox="0 0 832.03351 185.493"
   enable-background="new 0 0 940 480"
   xml:space="preserve"
   sodipodi:docname="MSESSFullLogo.svg"
   inkscape:version="0.92.2 2405546, 2018-03-11"><metadata
   id="metadata137"><rdf:RDF><cc:Work
       rdf:about=""><dc:format>image/svg+xml</dc:format><dc:type
         rdf:resource="http://purl.org/dc/dcmitype/StillImage" /><dc:title></dc:title></cc:Work></rdf:RDF></metadata><defs
   id="defs135" /><sodipodi:namedview
   pagecolor="#ffffff"
   bordercolor="#666666"
   borderopacity="1"
   objecttolerance="10"
   gridtolerance="10"
   guidetolerance="10"
   inkscape:pageopacity="0"
   inkscape:pageshadow="2"
   inkscape:window-width="1920"
   inkscape:window-height="1080"
   id="namedview133"
   showgrid="false"
   fit-margin-top="0"
   fit-margin-left="0"
   fit-margin-right="0"
   fit-margin-bottom="0"
   inkscape:pagecheckerboard="true"
   inkscape:zoom="0.53258681"
   inkscape:cx="215.66639"
   inkscape:cy="154.55245"
   inkscape:window-x="2560"
   inkscape:window-y="360"
   inkscape:window-maximized="0"
   inkscape:current-layer="layer3" />

<g
   inkscape:groupmode="layer"
   id="layer3"
   inkscape:label="Layer 1"
   transform="translate(-19.592972,-109.36454)"><g
     id="g4045"
     transform="translate(-31.921506,-27.607558)"
     style="fill:#ffffff">
	<g
   id="g3955"
   style="fill:#ffffff">
		<path
   id="path3917"
   d="m 124.413,229.88 v 39.1 c 0,0.11 0.005,0.229 -10e-4,0.338 -0.015,0.211 -0.121,0.313 -0.342,0.331 -0.094,0.008 -0.192,0.006 -0.29,0.006 -6.629,0 -13.259,0 -19.888,0 -0.114,0 -0.228,0.004 -0.341,-0.007 -0.201,-0.021 -0.321,-0.144 -0.332,-0.347 -0.009,-0.112 -0.002,-0.226 -0.002,-0.342 v -78.145 c 0,-0.13 -0.007,-0.261 0.002,-0.389 0.014,-0.213 0.152,-0.345 0.371,-0.36 0.099,-0.007 0.194,-0.002 0.292,-0.002 h 19.888 c 0.113,0 0.229,-0.006 0.339,0.003 0.146,0.016 0.276,0.136 0.297,0.279 0.011,0.081 0.006,0.161 0.006,0.246 v 0.678 38.611 z"
   inkscape:connector-curvature="0"
   style="fill:#ffffff" />
		<path
   id="path3919"
   d="m 184.365,229.933 v 39.004 c 0,0.16 0.004,0.321 -0.009,0.484 -0.016,0.19 -0.126,0.295 -0.312,0.309 -0.114,0.007 -0.227,0 -0.341,0 H 163.86 c -0.112,0 -0.226,0.007 -0.338,0 -0.214,-0.014 -0.316,-0.118 -0.332,-0.339 -0.009,-0.13 -0.002,-0.262 -0.002,-0.39 v -7.05 -71.054 c 0,-0.146 -0.008,-0.294 0.004,-0.438 0.018,-0.194 0.124,-0.294 0.312,-0.309 0.115,-0.007 0.227,-0.003 0.34,-0.003 h 19.843 c 0.112,0 0.227,-0.004 0.34,0 0.206,0.017 0.315,0.13 0.333,0.342 0.009,0.114 0.005,0.227 0.005,0.339 v 10.703 z"
   inkscape:connector-curvature="0"
   style="fill:#ffffff" />
		<path
   id="path3921"
   d="m 163.512,308.429 c -0.134,-0.015 -0.259,0.02 -0.385,0.05 -2.309,0.571 -4.651,1.024 -7.002,1.394 -0.511,0.082 -1.024,0.143 -1.54,0.216 -0.169,0.023 -0.194,0.054 -0.202,0.215 -0.003,0.147 -0.003,0.294 -0.003,0.441 0,2.884 0.003,5.769 0,8.652 0,0.308 -0.004,0.613 -0.081,0.921 -0.335,1.327 -1.545,2.145 -2.684,2.145 -1.263,0 -2.529,0 -3.792,0 -0.049,0 -0.099,0 -0.147,-0.003 -0.101,-0.011 -0.133,-0.079 -0.134,-0.165 -0.002,-0.129 -0.002,-0.259 -0.002,-0.39 v -13.373 -8.168 -0.197 c -0.002,-0.511 -0.015,-0.459 0.47,-0.49 1.361,-0.078 2.713,-0.201 4.068,-0.358 1.867,-0.223 3.72,-0.518 5.566,-0.884 3.866,-0.769 7.64,-1.86 11.321,-3.28 7.166,-2.761 13.709,-6.593 19.61,-11.514 8.357,-6.958 14.773,-15.406 19.239,-25.322 2.049,-4.548 3.568,-9.274 4.595,-14.155 0.385,-1.824 0.688,-3.664 0.921,-5.513 0.198,-1.558 0.329,-3.123 0.446,-4.69 0.003,-0.079 0.008,-0.164 0.016,-0.242 0.013,-0.093 0.071,-0.142 0.164,-0.146 0.113,-0.002 0.226,-0.005 0.34,-0.005 h 22.175 c 0.555,0 0.529,-0.048 0.529,0.52 0,1.171 0,2.339 0,3.504 0,0.371 -0.015,0.742 -0.13,1.104 -0.357,1.153 -1.383,1.961 -2.587,2.025 -0.177,0.007 -0.355,0.005 -0.534,0.005 h -8.998 c -0.115,0 -0.227,-0.001 -0.339,0 -0.259,0.01 -0.266,0.017 -0.3,0.276 -0.508,3.66 -1.274,7.271 -2.271,10.832 -0.034,0.126 -0.082,0.246 -0.067,0.38 -0.031,0.051 -0.074,0.105 -0.09,0.163 -0.149,0.495 -0.292,0.994 -0.449,1.489 -1.069,3.417 -2.35,6.75 -3.862,9.996 -1.042,2.234 -2.176,4.417 -3.414,6.542 -0.294,0.503 -0.583,1.011 -0.868,1.514 -0.087,0.122 -0.172,0.235 -0.252,0.358 -1.67,2.706 -3.498,5.303 -5.467,7.795 -0.11,0.138 -0.26,0.251 -0.274,0.444 -0.161,0.036 -0.229,0.177 -0.317,0.286 -1.07,1.339 -2.194,2.638 -3.362,3.887 -1.083,1.16 -2.17,2.312 -3.329,3.4 -1.165,1.096 -2.336,2.184 -3.553,3.23 -0.968,0.834 -1.961,1.638 -2.966,2.424 -0.717,0.552 -1.442,1.09 -2.163,1.634 -1.384,0.985 -2.784,1.95 -4.223,2.859 -1.067,0.674 -2.148,1.331 -3.244,1.954 -0.141,0.078 -0.271,0.167 -0.408,0.256 -0.046,0.018 -0.094,0.024 -0.135,0.045 -0.639,0.349 -1.272,0.708 -1.918,1.043 -3.069,1.608 -6.222,3.025 -9.474,4.227 -2.61,0.965 -5.26,1.799 -7.952,2.49 -0.181,0.048 -0.386,0.052 -0.542,0.179"
   inkscape:connector-curvature="0"
   style="fill:#ffffff" />
		<path
   id="path3923"
   d="m 207.5,179.45 c 0.009,0.122 0.084,0.208 0.154,0.295 1.879,2.392 3.61,4.889 5.214,7.475 0.008,0.013 0.024,0.021 0.035,0.036 0.008,0.028 0.016,0.061 0.031,0.087 0.88,1.4 1.7,2.835 2.471,4.294 1.188,2.249 2.286,4.542 3.265,6.891 1.086,2.623 2.047,5.281 2.85,8.002 0.042,0.154 0.109,0.301 0.167,0.45 0.017,0.096 0.025,0.192 0.05,0.286 0.654,2.273 1.207,4.571 1.66,6.894 0.284,1.461 0.525,2.934 0.731,4.41 0.096,0.685 -0.032,0.583 0.662,0.583 3.03,0.005 6.061,0.005 9.095,0.005 0.259,0 0.514,0.012 0.773,0.057 1.271,0.219 2.218,1.333 2.313,2.488 0.013,0.164 0.025,0.323 0.028,0.487 0.001,1.197 0,2.398 0,3.599 0,0.113 0.021,0.229 -0.055,0.331 -0.138,0.06 -0.288,0.032 -0.429,0.032 -7.407,0 -14.815,0 -22.225,0 -0.553,0 -0.47,0.034 -0.506,-0.5 -0.109,-1.604 -0.244,-3.198 -0.449,-4.79 -0.335,-2.672 -0.825,-5.31 -1.469,-7.925 -1.661,-6.769 -4.275,-13.145 -7.862,-19.113 -6.376,-10.603 -14.945,-18.975 -25.692,-25.102 -5.746,-3.277 -11.855,-5.66 -18.297,-7.186 -2.157,-0.512 -4.339,-0.92 -6.54,-1.223 -1.346,-0.187 -2.7,-0.347 -4.058,-0.434 -0.436,-0.025 -0.873,-0.06 -1.309,-0.092 -0.273,-0.018 -0.286,-0.034 -0.294,-0.323 -0.001,-0.099 0,-0.196 0,-0.292 V 137.58 c 0,-0.676 -0.063,-0.604 0.593,-0.604 1.101,-0.003 2.204,0 3.304,-0.003 0.343,0 0.683,0.023 1.013,0.114 1.231,0.353 2.049,1.415 2.096,2.734 0.006,0.132 0.003,0.259 0.003,0.39 0,2.888 -0.003,5.771 0.002,8.658 0,0.576 -0.1,0.518 0.542,0.606 2.501,0.357 4.982,0.834 7.442,1.419 0.454,0.109 0.912,0.216 1.367,0.324 0.092,0.03 0.183,0.069 0.276,0.092 2.537,0.664 5.029,1.452 7.487,2.359 2.443,0.902 4.835,1.925 7.182,3.054 1.733,0.835 3.426,1.746 5.099,2.697 1.769,1.038 3.518,2.113 5.206,3.277 0.745,0.515 1.481,1.043 2.222,1.565 0.143,0.103 0.271,0.234 0.453,0.278 0.014,0.091 0.096,0.117 0.16,0.166 1.238,0.941 2.457,1.9 3.649,2.899 1.418,1.185 2.785,2.424 4.12,3.699 1.396,1.332 2.729,2.722 4.017,4.156 1.103,1.23 2.179,2.481 3.2,3.777 0.072,0.091 0.126,0.197 0.253,0.213"
   inkscape:connector-curvature="0"
   style="fill:#ffffff" />
		<path
   id="path3925"
   d="m 65.844,252.113 c 0.018,-0.115 -0.019,-0.223 -0.05,-0.332 -0.611,-2.167 -1.13,-4.357 -1.558,-6.567 -0.286,-1.479 -0.539,-2.965 -0.73,-4.459 -0.067,-0.534 -0.083,-0.466 -0.532,-0.466 -2.739,-0.003 -5.479,0 -8.218,-0.003 -0.212,0 -0.422,-0.002 -0.629,-0.017 -1.362,-0.077 -2.56,-1.257 -2.602,-2.677 -0.018,-0.65 -0.007,-1.297 -0.009,-1.943 0,-0.701 -0.002,-1.396 0.001,-2.092 0.002,-0.221 0.028,-0.243 0.256,-0.25 0.128,-0.005 0.259,-0.002 0.39,-0.002 h 21.007 0.292 c 0.369,0 0.369,-0.014 0.393,0.37 0.042,0.63 0.096,1.263 0.143,1.889 0.106,1.44 0.283,2.869 0.483,4.297 0.262,1.846 0.601,3.677 1.015,5.491 1.037,4.529 2.502,8.918 4.42,13.151 4.27,9.43 10.326,17.531 18.163,24.298 7.304,6.312 15.575,10.912 24.789,13.81 2.844,0.896 5.737,1.594 8.676,2.113 1.773,0.314 3.554,0.558 5.342,0.736 0.966,0.099 1.94,0.153 2.907,0.223 0.31,0.021 0.317,0.023 0.325,0.345 0.002,0.096 0,0.194 0,0.292 0,7.184 0,14.361 0,21.543 0,0.681 0.074,0.599 -0.589,0.599 -1.234,0.004 -2.466,0 -3.698,0 -0.337,0 -0.677,-0.014 -1.007,-0.119 -1.343,-0.441 -1.965,-1.636 -1.981,-2.569 -10e-4,-0.179 -0.004,-0.355 -0.004,-0.534 -0.002,-2.854 0.003,-5.71 -0.002,-8.56 -0.002,-0.637 0.111,-0.605 -0.599,-0.708 -1.719,-0.236 -3.424,-0.542 -5.119,-0.901 -1.158,-0.242 -2.309,-0.506 -3.455,-0.803 -0.139,-0.038 -0.28,-0.082 -0.431,-0.053 -0.089,-0.112 -0.229,-0.109 -0.35,-0.146 -0.368,-0.113 -0.747,-0.203 -1.121,-0.312 -2.021,-0.571 -4.02,-1.222 -5.996,-1.949 -2.323,-0.859 -4.6,-1.827 -6.838,-2.885 -1.915,-0.91 -3.783,-1.912 -5.624,-2.952 -1.521,-0.903 -3.025,-1.827 -4.49,-2.803 -1.145,-0.773 -2.262,-1.573 -3.378,-2.377 -0.141,-0.109 -0.278,-0.219 -0.417,-0.325 -1.02,-0.771 -2.017,-1.573 -3.003,-2.385 -1.25,-1.034 -2.469,-2.099 -3.644,-3.216 -1.809,-1.715 -3.565,-3.483 -5.211,-5.364 -0.885,-1.01 -1.757,-2.032 -2.603,-3.077 -0.19,-0.233 -0.332,-0.519 -0.602,-0.688 -0.02,-0.116 -0.096,-0.197 -0.167,-0.287 -1.858,-2.389 -3.573,-4.876 -5.158,-7.451 -0.033,-0.053 -0.076,-0.103 -0.113,-0.154 -0.026,-0.058 -0.045,-0.117 -0.081,-0.171 -1.283,-2.122 -2.464,-4.29 -3.547,-6.518 -1.09,-2.241 -2.08,-4.521 -2.956,-6.853 -0.672,-1.785 -1.288,-3.589 -1.82,-5.424 -0.075,-0.259 -0.116,-0.528 -0.27,-0.765"
   inkscape:connector-curvature="0"
   style="fill:#ffffff" />
		<path
   id="path3927"
   d="m 74.713,187.25 c 0.12,-0.068 0.169,-0.191 0.236,-0.301 1.592,-2.554 3.318,-5.013 5.178,-7.376 0.103,-0.125 0.225,-0.235 0.241,-0.413 0.096,0.007 0.138,-0.067 0.188,-0.128 0.256,-0.315 0.516,-0.623 0.772,-0.937 1.489,-1.833 3.092,-3.571 4.739,-5.263 1.469,-1.506 3.015,-2.934 4.6,-4.318 0.682,-0.595 1.386,-1.164 2.081,-1.744 0.948,-0.784 1.93,-1.523 2.912,-2.265 0.062,-0.047 0.143,-0.079 0.155,-0.174 0.132,-0.017 0.234,-0.103 0.337,-0.18 2.45,-1.788 5.001,-3.424 7.632,-4.935 1.543,-0.853 3.094,-1.688 4.681,-2.455 1.998,-0.965 4.028,-1.854 6.097,-2.654 2.702,-1.048 5.453,-1.949 8.254,-2.69 0.345,-0.092 0.68,-0.2 1.021,-0.303 0.603,-0.133 1.2,-0.264 1.799,-0.401 1.787,-0.409 3.58,-0.765 5.389,-1.042 0.657,-0.099 1.314,-0.194 1.971,-0.29 0.24,-0.035 0.254,-0.05 0.261,-0.312 0.002,-0.111 0,-0.225 0,-0.339 0,-2.901 0.002,-5.804 -0.001,-8.708 0,-0.375 0.036,-0.741 0.158,-1.098 0.405,-1.173 1.437,-1.909 2.749,-1.946 0.371,-0.012 0.744,-0.002 1.122,-0.002 0.873,0 1.747,0 2.623,0 0.114,0 0.227,0 0.339,0.008 0.07,0.006 0.12,0.059 0.125,0.126 0.01,0.146 0.01,0.292 0.01,0.438 v 9.63 c 0,4.006 0.002,8.009 0,12.009 0,0.586 0.087,0.556 -0.54,0.584 -1.36,0.062 -2.717,0.188 -4.068,0.338 -1.9,0.213 -3.79,0.512 -5.662,0.884 -3.771,0.754 -7.46,1.802 -11.056,3.167 -8.748,3.317 -16.521,8.193 -23.326,14.613 -6.56,6.192 -11.737,13.384 -15.533,21.564 -2.143,4.613 -3.75,9.412 -4.833,14.385 -0.426,1.965 -0.773,3.943 -1.031,5.934 -0.195,1.526 -0.357,3.061 -0.435,4.599 -0.007,0.193 -0.007,0.387 -0.081,0.575 -0.168,0.083 -0.349,0.041 -0.525,0.041 -3.794,0.003 -7.588,0.003 -11.381,0.003 -3.289,0 -6.581,0 -9.87,-0.003 -0.583,0 -0.524,0.062 -0.524,-0.518 -0.002,-1.226 0.004,-2.463 -0.002,-3.695 -0.005,-0.636 0.157,-1.218 0.537,-1.731 0.553,-0.749 1.299,-1.158 2.234,-1.184 0.615,-0.019 1.231,-0.005 1.849,-0.005 h 6.76 c 0.111,0 0.227,0.001 0.339,-0.002 0.25,-0.007 0.251,-0.007 0.295,-0.273 0.151,-0.947 0.296,-1.888 0.458,-2.833 0.46,-2.701 1.078,-5.363 1.82,-8 0.069,-0.25 0.175,-0.49 0.177,-0.757 0.086,-0.083 0.107,-0.197 0.138,-0.306 0.55,-1.929 1.204,-3.823 1.923,-5.694 1.187,-3.102 2.54,-6.128 4.109,-9.058 0.755,-1.414 1.543,-2.807 2.374,-4.18 0.074,-0.119 0.173,-0.234 0.185,-0.385"
   inkscape:connector-curvature="0"
   style="fill:#ffffff" />
		<path
   id="path3929"
   d="m 143.908,205.453 c 0.238,-0.264 0.448,-0.491 0.653,-0.717 1.758,-1.972 3.521,-3.943 5.284,-5.914 2.664,-2.985 5.333,-5.967 8.003,-8.952 0.322,-0.362 0.648,-0.728 0.973,-1.09 0.075,-0.084 0.152,-0.169 0.229,-0.249 0.064,-0.062 0.14,-0.08 0.22,-0.028 0.081,0.05 0.089,0.129 0.066,0.209 -0.031,0.126 -0.068,0.253 -0.106,0.377 -0.633,2.106 -1.27,4.216 -1.904,6.325 -2.347,7.802 -4.694,15.605 -7.041,23.405 -1.861,6.189 -3.717,12.377 -5.581,18.567 -0.245,0.821 -0.494,1.643 -0.743,2.463 -0.037,0.123 -0.076,0.25 -0.12,0.37 -0.025,0.068 -0.086,0.088 -0.157,0.088 -0.075,0.004 -0.133,-0.031 -0.155,-0.092 -0.058,-0.153 -0.105,-0.307 -0.151,-0.462 l -2.918,-9.925 c -2.332,-7.94 -4.668,-15.881 -7.003,-23.824 -1.656,-5.639 -3.314,-11.278 -4.972,-16.922 -0.041,-0.14 -0.078,-0.281 -0.111,-0.424 -0.012,-0.062 0.018,-0.123 0.081,-0.159 0.06,-0.037 0.129,-0.04 0.181,0.007 0.094,0.086 0.184,0.182 0.268,0.275 1.802,2 3.6,4.004 5.398,6.003 1.55,1.726 3.098,3.45 4.647,5.176 1.517,1.687 3.034,3.376 4.552,5.062 0.118,0.134 0.243,0.262 0.407,0.431"
   inkscape:connector-curvature="0"
   style="fill:#ffffff" />
		<path
   id="path3931"
   d="m 163.512,308.429 c 0.157,-0.127 0.361,-0.131 0.543,-0.179 2.692,-0.691 5.342,-1.525 7.952,-2.49 3.251,-1.201 6.404,-2.618 9.474,-4.227 0.646,-0.335 1.279,-0.694 1.918,-1.043 0.041,-0.021 0.088,-0.027 0.135,-0.045 0.176,0.593 0.452,1.144 0.675,1.718 0.49,1.246 0.996,2.494 1.5,3.736 0.738,1.833 1.481,3.661 2.226,5.488 0.078,0.198 0.161,0.39 0.239,0.585 0.069,0.184 0.039,0.257 -0.157,0.338 -0.644,0.257 -1.29,0.521 -1.934,0.781 -1.875,0.755 -3.75,1.516 -5.624,2.273 -1.352,0.549 -2.704,1.085 -4.055,1.63 -1.846,0.749 -3.687,1.498 -5.533,2.244 -0.704,0.284 -1.413,0.571 -2.115,0.852 -0.121,0.051 -0.248,0.089 -0.373,0.116 -0.066,0.021 -0.134,-0.014 -0.162,-0.071 -0.062,-0.116 -0.108,-0.239 -0.154,-0.355 -0.417,-1.041 -0.832,-2.073 -1.25,-3.106 -0.687,-1.697 -1.374,-3.391 -2.062,-5.085 -0.408,-1.009 -0.814,-2.012 -1.216,-3.018 -0.02,-0.044 -0.02,-0.095 -0.027,-0.142"
   inkscape:connector-curvature="0"
   style="fill:#ffffff" />
		<path
   id="path3933"
   d="m 184.22,159.419 c -1.673,-0.95 -3.366,-1.864 -5.099,-2.694 -2.347,-1.131 -4.739,-2.155 -7.182,-3.056 -2.458,-0.909 -4.95,-1.699 -7.487,-2.359 -0.093,-0.023 -0.183,-0.063 -0.273,-0.092 0.953,-2.37 1.908,-4.743 2.863,-7.112 0.551,-1.365 1.104,-2.729 1.657,-4.094 0.035,-0.09 0.078,-0.177 0.13,-0.259 0.044,-0.08 0.125,-0.102 0.21,-0.078 0.062,0.018 0.12,0.044 0.181,0.071 2.685,1.083 5.368,2.168 8.056,3.248 1.77,0.713 3.541,1.424 5.312,2.138 1.935,0.785 3.868,1.572 5.802,2.354 0.09,0.035 0.18,0.077 0.266,0.123 0.141,0.073 0.169,0.128 0.119,0.268 -0.106,0.287 -0.223,0.574 -0.335,0.858 -0.595,1.47 -1.187,2.94 -1.782,4.411 -0.749,1.842 -1.497,3.685 -2.246,5.532 -0.096,0.237 -0.23,0.469 -0.192,0.741"
   inkscape:connector-curvature="0"
   style="fill:#ffffff" />
		<path
   id="path3935"
   d="m 191.409,295.376 c 0.722,-0.546 1.448,-1.082 2.161,-1.638 1.009,-0.778 2,-1.586 2.969,-2.417 1.217,-1.047 2.388,-2.138 3.553,-3.233 1.157,-1.089 2.247,-2.24 3.329,-3.4 1.168,-1.25 2.292,-2.545 3.362,-3.887 0.089,-0.109 0.159,-0.25 0.315,-0.284 0.208,0.007 0.303,0.18 0.415,0.309 0.564,0.649 1.189,1.236 1.786,1.854 1.19,1.235 2.4,2.454 3.577,3.704 0.854,0.908 1.74,1.787 2.603,2.688 0.055,0.057 0.114,0.113 0.167,0.174 0.104,0.118 0.099,0.165 -0.017,0.288 -0.056,0.061 -0.114,0.116 -0.17,0.171 -1.291,1.256 -2.567,2.521 -3.878,3.753 -0.778,0.73 -1.535,1.485 -2.303,2.226 -1.108,1.068 -2.199,2.157 -3.321,3.205 -0.889,0.831 -1.732,1.706 -2.62,2.53 -0.948,0.884 -1.865,1.8 -2.794,2.707 -0.045,0.044 -0.091,0.085 -0.139,0.134 -0.086,0.082 -0.173,0.075 -0.256,-0.004 -0.239,-0.242 -0.49,-0.475 -0.711,-0.731 -0.315,-0.37 -0.665,-0.709 -1.002,-1.058 -0.52,-0.534 -1.059,-1.051 -1.564,-1.598 -0.944,-1.026 -1.951,-1.988 -2.9,-3.008 -0.696,-0.746 -1.422,-1.465 -2.125,-2.199 -0.125,-0.129 -0.232,-0.286 -0.437,-0.286"
   inkscape:connector-curvature="0"
   style="fill:#ffffff" />
		<path
   id="path3937"
   d="m 207.5,179.45 c -0.127,-0.016 -0.181,-0.122 -0.254,-0.213 -1.021,-1.295 -2.098,-2.547 -3.2,-3.777 -1.289,-1.435 -2.621,-2.824 -4.017,-4.156 -1.334,-1.275 -2.702,-2.515 -4.12,-3.699 -1.192,-0.999 -2.411,-1.958 -3.649,-2.899 -0.064,-0.049 -0.146,-0.075 -0.16,-0.166 0.028,-0.06 0.046,-0.121 0.085,-0.172 0.049,-0.064 0.11,-0.118 0.166,-0.178 1.479,-1.521 2.973,-3.032 4.435,-4.57 1.018,-1.069 2.053,-2.117 3.083,-3.177 0.233,-0.245 0.457,-0.5 0.694,-0.747 0.124,-0.123 0.2,-0.113 0.336,0.005 0.037,0.033 0.071,0.067 0.106,0.102 0.83,0.798 1.659,1.595 2.486,2.394 1.374,1.331 2.732,2.68 4.121,3.992 0.933,0.877 1.824,1.797 2.763,2.668 0.989,0.917 1.915,1.889 2.902,2.804 0.858,0.793 1.675,1.625 2.519,2.431 0.09,0.093 0.187,0.184 0.273,0.278 0.1,0.111 0.103,0.195 0.014,0.301 -0.051,0.063 -0.109,0.12 -0.166,0.178 -0.146,0.154 -0.295,0.3 -0.44,0.454 -1.389,1.427 -2.794,2.845 -4.162,4.295 -0.859,0.909 -1.743,1.788 -2.604,2.688 -0.315,0.331 -0.62,0.665 -0.934,0.994 -0.074,0.08 -0.14,0.18 -0.277,0.17"
   inkscape:connector-curvature="0"
   style="fill:#ffffff" />
		<path
   id="path3939"
   d="m 221.689,206.982 c -0.058,-0.15 -0.126,-0.298 -0.171,-0.452 -0.797,-2.723 -1.762,-5.385 -2.848,-8.002 -0.975,-2.352 -2.075,-4.641 -3.264,-6.891 -0.774,-1.458 -1.591,-2.896 -2.471,-4.291 -0.015,-0.03 -0.02,-0.063 -0.03,-0.095 0.13,-0.005 0.25,-0.051 0.372,-0.105 1.297,-0.582 2.598,-1.166 3.9,-1.743 1.597,-0.712 3.194,-1.416 4.792,-2.127 0.699,-0.308 1.391,-0.621 2.085,-0.927 0.206,-0.093 0.255,-0.078 0.346,0.112 0.17,0.364 0.333,0.736 0.498,1.106 0.7,1.583 1.401,3.17 2.106,4.752 0.584,1.312 1.177,2.627 1.764,3.943 0.736,1.654 1.467,3.315 2.204,4.97 0.453,1.023 0.915,2.037 1.372,3.058 0.203,0.459 0.407,0.919 0.599,1.382 0.088,0.214 0.053,0.277 -0.163,0.381 -0.159,0.079 -0.325,0.141 -0.488,0.214 -1.066,0.476 -2.124,0.955 -3.192,1.43 -1.315,0.587 -2.634,1.164 -3.949,1.75 -1.008,0.449 -2.009,0.9 -3.016,1.348 -0.148,0.068 -0.299,0.127 -0.446,0.187"
   inkscape:connector-curvature="0"
   style="fill:#ffffff" />
		<path
   id="path3941"
   d="m 65.844,252.113 c 0.154,0.236 0.195,0.506 0.271,0.766 0.532,1.835 1.148,3.639 1.82,5.424 0.876,2.332 1.866,4.611 2.956,6.853 1.083,2.228 2.264,4.396 3.547,6.518 0.036,0.054 0.055,0.113 0.081,0.171 -0.302,0.123 -0.603,0.241 -0.899,0.373 -1.316,0.581 -2.628,1.177 -3.946,1.762 -1.598,0.711 -3.198,1.416 -4.796,2.125 -0.429,0.189 -0.855,0.386 -1.288,0.576 -0.182,0.08 -0.266,0.053 -0.35,-0.128 -0.14,-0.289 -0.268,-0.591 -0.398,-0.884 -0.702,-1.584 -1.4,-3.17 -2.104,-4.751 -0.453,-1.022 -0.915,-2.043 -1.371,-3.059 -0.608,-1.38 -1.217,-2.757 -1.83,-4.134 -0.448,-1.002 -0.9,-2.005 -1.347,-3.015 -0.488,-1.093 -0.972,-2.192 -1.457,-3.283 -0.02,-0.045 -0.044,-0.089 -0.058,-0.138 -0.044,-0.123 -0.01,-0.205 0.116,-0.277 0.069,-0.04 0.145,-0.078 0.218,-0.109 1.066,-0.472 2.13,-0.944 3.196,-1.416 0.667,-0.294 1.33,-0.596 1.997,-0.893 1.094,-0.486 2.191,-0.972 3.283,-1.458 0.667,-0.298 1.33,-0.595 1.996,-0.894 0.119,-0.047 0.229,-0.129 0.363,-0.129"
   inkscape:connector-curvature="0"
   style="fill:#ffffff" />
		<path
   id="path3943"
   d="m 79.955,279.74 c 0.272,0.165 0.412,0.45 0.602,0.684 0.847,1.045 1.719,2.07 2.604,3.077 1.647,1.878 3.404,3.649 5.213,5.368 1.173,1.11 2.39,2.178 3.642,3.21 0.986,0.811 1.983,1.613 3.003,2.387 0.143,0.109 0.278,0.216 0.417,0.325 -0.155,0.023 -0.259,0.127 -0.357,0.236 -0.983,1.077 -2.034,2.086 -3.031,3.147 -0.344,0.365 -0.69,0.731 -1.039,1.091 -1.215,1.256 -2.433,2.511 -3.652,3.767 -0.099,0.103 -0.203,0.209 -0.312,0.305 -0.083,0.072 -0.176,0.072 -0.264,0.007 -0.053,-0.041 -0.099,-0.089 -0.144,-0.13 -0.62,-0.593 -1.242,-1.185 -1.859,-1.779 -1.49,-1.444 -2.96,-2.904 -4.466,-4.328 -0.94,-0.89 -1.844,-1.823 -2.795,-2.703 -0.987,-0.909 -1.913,-1.887 -2.899,-2.798 -0.963,-0.891 -1.881,-1.829 -2.827,-2.736 -0.07,-0.069 -0.14,-0.138 -0.204,-0.206 -0.125,-0.134 -0.121,-0.182 0.011,-0.332 0.021,-0.021 0.045,-0.045 0.067,-0.066 0.696,-0.726 1.386,-1.449 2.086,-2.171 1.374,-1.42 2.762,-2.83 4.122,-4.262 0.592,-0.617 1.188,-1.232 1.787,-1.85 0.089,-0.094 0.16,-0.205 0.295,-0.243"
   inkscape:connector-curvature="0"
   style="fill:#ffffff" />
		<path
   id="path3945"
   d="m 95.815,164.332 c -0.01,0.094 -0.093,0.127 -0.154,0.173 -0.982,0.739 -1.964,1.481 -2.91,2.266 -0.698,0.578 -1.398,1.147 -2.082,1.744 -1.587,1.381 -3.133,2.81 -4.601,4.316 -1.649,1.691 -3.249,3.43 -4.741,5.262 -0.252,0.317 -0.516,0.625 -0.773,0.938 -0.049,0.06 -0.091,0.134 -0.187,0.127 -0.111,0.005 -0.174,-0.074 -0.241,-0.143 -0.906,-0.949 -1.85,-1.862 -2.739,-2.829 -0.702,-0.76 -1.463,-1.471 -2.173,-2.227 -0.963,-1.032 -1.962,-2.024 -2.939,-3.038 -0.412,-0.426 -0.423,-0.488 0.051,-0.862 0.139,-0.109 0.261,-0.243 0.39,-0.369 1.65,-1.604 3.285,-3.22 4.951,-4.808 0.93,-0.879 1.821,-1.799 2.76,-2.668 0.978,-0.9 1.895,-1.865 2.867,-2.767 0.953,-0.88 1.858,-1.808 2.796,-2.703 0.352,-0.336 0.706,-0.668 1.059,-0.999 0.204,-0.187 0.265,-0.195 0.447,-0.011 0.353,0.358 0.694,0.724 1.039,1.087 0.114,0.116 0.224,0.238 0.336,0.352 0.532,0.544 1.069,1.085 1.601,1.631 1.081,1.119 2.174,2.222 3.241,3.356 0.597,0.638 1.211,1.263 1.817,1.892 0.082,0.084 0.178,0.152 0.185,0.28"
   inkscape:connector-curvature="0"
   style="fill:#ffffff" />
		<path
   id="path3947"
   d="m 74.713,187.25 c -0.013,0.152 -0.111,0.266 -0.187,0.386 -0.831,1.374 -1.618,2.767 -2.374,4.18 -1.569,2.93 -2.922,5.957 -4.109,9.058 -0.719,1.871 -1.373,3.765 -1.923,5.694 -0.031,0.109 -0.052,0.223 -0.138,0.306 -0.123,0.014 -0.218,-0.046 -0.322,-0.092 -1.596,-0.712 -3.193,-1.429 -4.788,-2.137 -1.865,-0.832 -3.73,-1.654 -5.594,-2.48 -0.132,-0.06 -0.274,-0.104 -0.405,-0.24 0.134,-0.312 0.268,-0.636 0.409,-0.958 0.617,-1.391 1.234,-2.781 1.853,-4.172 0.45,-1.005 0.901,-2.009 1.347,-3.013 0.619,-1.391 1.238,-2.785 1.854,-4.171 0.437,-0.977 0.875,-1.951 1.307,-2.927 0.477,-1.066 0.944,-2.132 1.418,-3.197 0.144,-0.326 0.287,-0.648 0.438,-0.973 0.075,-0.158 0.157,-0.196 0.312,-0.142 0.168,0.059 0.333,0.127 0.496,0.198 1.61,0.72 3.221,1.444 4.831,2.16 1.582,0.704 3.169,1.4 4.752,2.106 0.279,0.126 0.549,0.276 0.823,0.414"
   inkscape:connector-curvature="0"
   style="fill:#ffffff" />
		<path
   id="path3949"
   d="m 103.304,299.968 c 1.844,1.043 3.71,2.045 5.626,2.955 2.236,1.058 4.513,2.025 6.838,2.885 1.973,0.728 3.972,1.375 5.994,1.949 0.374,0.106 0.751,0.199 1.121,0.312 0.121,0.033 0.262,0.033 0.352,0.146 0.027,0.138 -0.03,0.25 -0.08,0.373 -0.61,1.517 -1.224,3.032 -1.834,4.548 -0.786,1.937 -1.567,3.87 -2.35,5.807 -0.188,0.469 -0.189,0.476 -0.668,0.283 -1.368,-0.544 -2.735,-1.095 -4.1,-1.646 -1.788,-0.719 -3.575,-1.44 -5.362,-2.162 -1.814,-0.736 -3.628,-1.476 -5.442,-2.21 -1.382,-0.562 -2.766,-1.112 -4.147,-1.663 -0.471,-0.188 -0.472,-0.188 -0.281,-0.668 0.812,-2.008 1.622,-4.02 2.438,-6.031 0.583,-1.44 1.169,-2.881 1.75,-4.324 0.07,-0.175 0.173,-0.349 0.145,-0.554"
   inkscape:connector-curvature="0"
   style="fill:#ffffff" />
		<path
   id="path3951"
   d="m 213.092,271.917 c 0.289,-0.503 0.577,-1.011 0.868,-1.514 1.24,-2.125 2.374,-4.308 3.412,-6.542 1.516,-3.246 2.794,-6.579 3.865,-10 0.155,-0.491 0.298,-0.99 0.446,-1.485 0.018,-0.06 0.061,-0.112 0.09,-0.163 0.382,0.096 0.718,0.293 1.071,0.447 1.321,0.578 2.631,1.177 3.949,1.762 1.297,0.578 2.603,1.15 3.907,1.729 0.606,0.265 1.21,0.537 1.817,0.811 0.26,0.116 0.273,0.148 0.163,0.401 -0.344,0.784 -0.69,1.567 -1.039,2.351 -0.609,1.377 -1.219,2.751 -1.832,4.128 -0.454,1.021 -0.915,2.036 -1.367,3.06 -0.489,1.091 -0.97,2.188 -1.458,3.284 -0.447,1.004 -0.9,2.005 -1.349,3.011 -0.453,1.022 -0.907,2.04 -1.355,3.065 -0.231,0.537 -0.227,0.541 -0.768,0.302 -1.317,-0.588 -2.628,-1.181 -3.944,-1.771 -1.598,-0.708 -3.198,-1.412 -4.794,-2.117 -0.562,-0.252 -1.126,-0.504 -1.682,-0.759"
   inkscape:connector-curvature="0"
   style="fill:#ffffff" />
		<path
   id="path3953"
   d="m 123.838,151.114 c -0.341,0.101 -0.68,0.212 -1.021,0.3 -2.802,0.743 -5.552,1.646 -8.254,2.692 -2.071,0.798 -4.099,1.691 -6.097,2.654 -1.587,0.765 -3.138,1.605 -4.681,2.455 0.055,-0.241 -0.066,-0.443 -0.15,-0.653 -0.292,-0.735 -0.597,-1.466 -0.894,-2.204 -0.927,-2.295 -1.85,-4.594 -2.774,-6.891 -0.164,-0.402 -0.336,-0.807 -0.496,-1.214 -0.063,-0.155 -0.045,-0.199 0.107,-0.264 0.385,-0.164 0.777,-0.326 1.166,-0.483 1.77,-0.711 3.544,-1.423 5.315,-2.137 2.64,-1.069 5.282,-2.145 7.921,-3.211 1.664,-0.675 3.331,-1.346 4.997,-2.018 0.032,-0.012 0.06,-0.027 0.09,-0.039 0.264,-0.101 0.331,-0.072 0.441,0.196 0.34,0.842 0.671,1.685 1.013,2.524 0.745,1.845 1.495,3.692 2.243,5.535 0.348,0.855 0.692,1.711 1.036,2.567 0.023,0.061 0.026,0.128 0.038,0.191"
   inkscape:connector-curvature="0"
   style="fill:#ffffff" />
	</g>
	<g
   id="g4043"
   style="fill:#ffffff">
		<path
   id="path3957"
   d="M 295.625,238.199 V 206.03 h -0.157 l -9.079,32.169 h -3.392 L 273.97,206.03 h -0.157 v 32.169 h -3.452 v -37.034 h 5.44 l 8.84,31.28 h 0.209 l 8.735,-31.28 h 5.649 v 37.034 z"
   inkscape:connector-curvature="0"
   style="fill:#ffffff" />
		<path
   id="path3959"
   d="m 309.381,225.959 c 0,1.431 0.123,2.746 0.368,3.949 0.246,1.203 0.604,2.25 1.078,3.139 0.473,0.89 1.069,1.587 1.787,2.093 0.718,0.506 1.568,0.758 2.55,0.758 1.261,0 2.277,-0.383 3.048,-1.15 0.771,-0.767 1.367,-1.691 1.788,-2.772 l 2.615,1.517 c -0.628,1.569 -1.561,2.887 -2.798,3.949 -1.238,1.063 -2.816,1.596 -4.734,1.596 -2.895,0 -5.144,-1.221 -6.748,-3.661 -1.604,-2.44 -2.406,-5.807 -2.406,-10.096 0,-2.022 0.208,-3.888 0.625,-5.597 0.417,-1.708 1.017,-3.173 1.8,-4.394 0.782,-1.22 1.738,-2.171 2.868,-2.851 1.129,-0.68 2.391,-1.02 3.781,-1.02 1.529,0 2.824,0.332 3.885,0.994 1.061,0.663 1.921,1.569 2.582,2.72 0.66,1.15 1.138,2.494 1.434,4.027 0.296,1.535 0.444,3.174 0.444,4.917 v 1.883 h -13.967 z m 10.514,-2.877 c 0,-2.615 -0.403,-4.715 -1.209,-6.303 -0.806,-1.586 -2.068,-2.38 -3.785,-2.38 -1.017,0 -1.866,0.306 -2.549,0.916 -0.683,0.61 -1.244,1.36 -1.682,2.249 -0.438,0.889 -0.753,1.84 -0.946,2.851 -0.193,1.012 -0.29,1.901 -0.29,2.667 z"
   inkscape:connector-curvature="0"
   style="fill:#ffffff" />
		<path
   id="path3961"
   d="m 336.999,239.036 c -1.464,0 -2.755,-0.34 -3.871,-1.02 -1.116,-0.681 -2.049,-1.622 -2.798,-2.825 -0.75,-1.203 -1.317,-2.649 -1.7,-4.342 -0.384,-1.69 -0.575,-3.564 -0.575,-5.623 0,-2.057 0.191,-3.931 0.575,-5.623 0.383,-1.691 0.959,-3.146 1.726,-4.368 0.767,-1.22 1.708,-2.162 2.825,-2.825 1.116,-0.662 2.406,-0.994 3.871,-0.994 1.325,0 2.458,0.244 3.4,0.732 0.941,0.488 1.691,1.064 2.249,1.726 l -1.831,2.511 c -0.418,-0.593 -0.942,-1.063 -1.569,-1.413 -0.628,-0.348 -1.36,-0.523 -2.197,-0.523 -0.942,0 -1.752,0.271 -2.433,0.811 -0.68,0.542 -1.247,1.291 -1.7,2.25 -0.454,0.959 -0.794,2.092 -1.02,3.4 -0.228,1.308 -0.34,2.747 -0.34,4.315 0,1.535 0.113,2.947 0.34,4.237 0.226,1.291 0.566,2.406 1.02,3.348 0.453,0.941 1.037,1.674 1.752,2.197 0.714,0.522 1.561,0.784 2.537,0.784 0.871,0 1.63,-0.183 2.275,-0.549 0.645,-0.366 1.194,-0.881 1.647,-1.543 l 1.569,2.667 c -1.394,1.78 -3.312,2.67 -5.752,2.67 z"
   inkscape:connector-curvature="0"
   style="fill:#ffffff" />
		<path
   id="path3963"
   d="m 360.275,238.199 v -16.738 c 0,-0.802 -0.044,-1.613 -0.131,-2.432 -0.087,-0.819 -0.271,-1.569 -0.549,-2.25 -0.279,-0.68 -0.689,-1.237 -1.229,-1.674 -0.541,-0.436 -1.247,-0.654 -2.119,-0.654 -0.872,0 -1.647,0.235 -2.328,0.706 -0.68,0.471 -1.264,1.117 -1.752,1.936 -0.489,0.82 -0.863,1.761 -1.125,2.825 -0.261,1.064 -0.392,2.17 -0.392,3.321 v 14.96 h -3.452 v -39.544 h 3.452 v 18.517 h 0.104 c 0.451,-1.674 1.232,-3.051 2.344,-4.132 1.111,-1.081 2.501,-1.622 4.168,-1.622 1.39,0 2.509,0.296 3.36,0.889 0.851,0.593 1.502,1.369 1.954,2.328 0.451,0.959 0.755,2.04 0.912,3.243 0.156,1.203 0.234,2.398 0.234,3.583 v 16.738 z"
   inkscape:connector-curvature="0"
   style="fill:#ffffff" />
		<path
   id="path3965"
   d="m 382.506,238.199 c -0.035,-0.278 -0.062,-0.628 -0.079,-1.046 -0.018,-0.419 -0.035,-0.863 -0.052,-1.334 -0.018,-0.471 -0.026,-0.924 -0.026,-1.36 0,-0.436 0,-0.811 0,-1.124 h -0.104 c -0.872,3.696 -2.964,5.544 -6.277,5.544 -0.732,0 -1.464,-0.14 -2.197,-0.418 -0.732,-0.279 -1.395,-0.732 -1.988,-1.36 -0.593,-0.628 -1.081,-1.42 -1.464,-2.38 -0.384,-0.959 -0.576,-2.118 -0.576,-3.479 0,-1.883 0.331,-3.399 0.994,-4.551 0.662,-1.15 1.499,-2.057 2.511,-2.72 1.011,-0.662 2.118,-1.106 3.321,-1.334 1.203,-0.227 2.345,-0.34 3.426,-0.34 h 2.04 v -1.36 c 0,-2.267 -0.418,-3.923 -1.255,-4.969 -0.837,-1.046 -1.971,-1.569 -3.4,-1.569 -0.977,0 -1.883,0.262 -2.72,0.785 -0.837,0.523 -1.552,1.186 -2.145,1.988 l -1.831,-2.145 c 0.802,-1.15 1.848,-2.04 3.139,-2.667 1.29,-0.627 2.58,-0.941 3.871,-0.941 2.72,0 4.655,0.889 5.806,2.667 1.151,1.778 1.726,4.377 1.726,7.794 v 10.775 c 0,0.35 0.008,0.785 0.026,1.308 0.017,0.523 0.034,1.056 0.052,1.596 0.017,0.541 0.043,1.046 0.079,1.517 0.034,0.471 0.069,0.847 0.104,1.125 h -2.981 z m -0.419,-13.181 h -2.092 c -0.837,0 -1.674,0.079 -2.511,0.235 -0.837,0.157 -1.578,0.454 -2.223,0.89 -0.646,0.437 -1.177,1.038 -1.595,1.805 -0.418,0.768 -0.628,1.761 -0.628,2.981 0,1.813 0.4,3.121 1.203,3.923 0.802,0.803 1.674,1.203 2.615,1.203 0.976,0 1.805,-0.296 2.485,-0.89 0.68,-0.592 1.22,-1.342 1.622,-2.249 0.4,-0.906 0.688,-1.9 0.863,-2.981 0.174,-1.08 0.262,-2.127 0.262,-3.139 v -1.778 z"
   inkscape:connector-curvature="0"
   style="fill:#ffffff" />
		<path
   id="path3967"
   d="m 399.767,238.67 c -0.558,0.139 -1.133,0.209 -1.726,0.209 -1.813,0 -3.095,-0.627 -3.844,-1.883 -0.75,-1.255 -1.125,-2.929 -1.125,-5.021 V 215.08 h -3.4 v -2.825 h 3.348 v -7.166 h 3.4 v 7.166 h 4.603 v 2.825 h -4.603 v 16.267 c 0,1.569 0.227,2.712 0.68,3.427 0.453,0.715 1.133,1.072 2.04,1.072 0.314,0 0.645,-0.044 0.994,-0.131 0.348,-0.087 0.645,-0.184 0.889,-0.288 l 0.157,2.772 c -0.385,0.174 -0.856,0.331 -1.413,0.471 z"
   inkscape:connector-curvature="0"
   style="fill:#ffffff" />
		<path
   id="path3969"
   d="m 411.745,212.987 c 1.011,-1.011 2.162,-1.517 3.452,-1.517 0.279,0 0.488,0.018 0.628,0.052 l -0.105,3.557 c -0.14,-0.035 -0.271,-0.061 -0.392,-0.079 -0.123,-0.017 -0.271,-0.026 -0.445,-0.026 -0.872,0 -1.647,0.297 -2.328,0.889 -0.68,0.594 -1.247,1.36 -1.7,2.302 -0.454,0.941 -0.794,2.014 -1.02,3.217 -0.228,1.204 -0.34,2.398 -0.34,3.583 v 13.233 h -3.452 v -19.406 c 0,-0.557 -0.009,-1.159 -0.026,-1.804 -0.018,-0.645 -0.035,-1.273 -0.053,-1.883 -0.018,-0.61 -0.035,-1.168 -0.052,-1.674 -0.018,-0.505 -0.044,-0.897 -0.078,-1.177 h 3.348 c 0.069,0.663 0.122,1.491 0.157,2.484 0.034,0.994 0.052,2.049 0.052,3.165 h 0.104 c 0.489,-2.265 1.238,-3.904 2.25,-4.916 z"
   inkscape:connector-curvature="0"
   style="fill:#ffffff" />
		<path
   id="path3971"
   d="m 436.381,225.279 c 0,2.058 -0.209,3.923 -0.627,5.597 -0.418,1.674 -1.012,3.121 -1.778,4.342 -0.768,1.221 -1.718,2.162 -2.851,2.824 -1.133,0.662 -2.398,0.994 -3.792,0.994 -1.396,0 -2.651,-0.332 -3.766,-0.994 -1.117,-0.662 -2.066,-1.604 -2.851,-2.824 -0.785,-1.22 -1.386,-2.668 -1.805,-4.342 -0.419,-1.674 -0.627,-3.539 -0.627,-5.597 0,-2.058 0.2,-3.94 0.602,-5.649 0.4,-1.708 0.985,-3.172 1.752,-4.394 0.767,-1.22 1.717,-2.162 2.851,-2.825 1.133,-0.662 2.414,-0.994 3.845,-0.994 1.394,0 2.659,0.332 3.792,0.994 1.133,0.663 2.083,1.604 2.851,2.825 0.767,1.221 1.36,2.686 1.778,4.394 0.417,1.709 0.626,3.592 0.626,5.649 z m -3.556,-0.078 c 0,-1.53 -0.114,-2.956 -0.34,-4.279 -0.227,-1.322 -0.567,-2.462 -1.02,-3.418 -0.454,-0.957 -1.02,-1.713 -1.7,-2.27 -0.68,-0.557 -1.491,-0.835 -2.432,-0.835 -0.942,0 -1.762,0.279 -2.458,0.835 -0.698,0.556 -1.265,1.313 -1.7,2.27 -0.437,0.956 -0.768,2.096 -0.994,3.418 -0.228,1.323 -0.34,2.749 -0.34,4.279 0,1.53 0.113,2.939 0.34,4.227 0.226,1.287 0.557,2.418 0.994,3.392 0.436,0.975 1.002,1.73 1.7,2.271 0.697,0.539 1.517,0.808 2.458,0.808 0.941,0 1.76,-0.269 2.458,-0.808 0.697,-0.54 1.263,-1.296 1.7,-2.271 0.436,-0.974 0.767,-2.104 0.994,-3.392 0.226,-1.287 0.34,-2.697 0.34,-4.227 z"
   inkscape:connector-curvature="0"
   style="fill:#ffffff" />
		<path
   id="path3973"
   d="m 456.153,238.199 v -16.738 c 0,-0.802 -0.044,-1.613 -0.131,-2.432 -0.087,-0.819 -0.28,-1.569 -0.576,-2.25 -0.296,-0.68 -0.715,-1.237 -1.255,-1.674 -0.541,-0.436 -1.247,-0.654 -2.118,-0.654 -0.872,0 -1.648,0.235 -2.328,0.706 -0.68,0.471 -1.255,1.117 -1.726,1.936 -0.471,0.82 -0.837,1.761 -1.099,2.825 -0.262,1.064 -0.393,2.17 -0.393,3.321 v 14.96 h -3.452 v -19.406 c 0,-0.557 -0.009,-1.159 -0.026,-1.804 -0.018,-0.645 -0.035,-1.273 -0.053,-1.883 -0.018,-0.61 -0.035,-1.168 -0.052,-1.674 -0.018,-0.505 -0.044,-0.897 -0.078,-1.177 h 3.348 c 0.069,0.663 0.122,1.464 0.157,2.406 0.034,0.941 0.052,1.831 0.052,2.667 h 0.104 c 0.488,-1.743 1.29,-3.165 2.406,-4.263 1.116,-1.098 2.511,-1.647 4.185,-1.647 1.395,0 2.519,0.296 3.374,0.889 0.854,0.593 1.508,1.369 1.961,2.328 0.453,0.959 0.758,2.04 0.916,3.243 0.157,1.203 0.235,2.398 0.235,3.583 v 16.738 z"
   inkscape:connector-curvature="0"
   style="fill:#ffffff" />
		<path
   id="path3975"
   d="m 471.479,204.304 c 0,0.732 -0.228,1.333 -0.68,1.805 -0.454,0.471 -0.994,0.706 -1.622,0.706 -0.663,0 -1.212,-0.235 -1.648,-0.706 -0.436,-0.471 -0.654,-1.073 -0.654,-1.805 0,-0.697 0.218,-1.29 0.654,-1.779 0.436,-0.488 0.985,-0.732 1.648,-0.732 0.662,0 1.211,0.244 1.647,0.732 0.436,0.489 0.655,1.082 0.655,1.779 z m -4.028,33.895 v -25.944 h 3.452 v 25.944 z"
   inkscape:connector-curvature="0"
   style="fill:#ffffff" />
		<path
   id="path3977"
   d="m 486.333,239.036 c -1.465,0 -2.756,-0.34 -3.871,-1.02 -1.116,-0.681 -2.049,-1.622 -2.799,-2.825 -0.75,-1.203 -1.316,-2.649 -1.699,-4.342 -0.385,-1.69 -0.576,-3.564 -0.576,-5.623 0,-2.057 0.191,-3.931 0.576,-5.623 0.383,-1.691 0.958,-3.146 1.726,-4.368 0.767,-1.22 1.708,-2.162 2.825,-2.825 1.115,-0.662 2.405,-0.994 3.87,-0.994 1.325,0 2.459,0.244 3.4,0.732 0.941,0.488 1.69,1.064 2.249,1.726 l -1.831,2.511 c -0.418,-0.593 -0.941,-1.063 -1.569,-1.413 -0.627,-0.348 -1.359,-0.523 -2.196,-0.523 -0.941,0 -1.753,0.271 -2.433,0.811 -0.68,0.542 -1.247,1.291 -1.7,2.25 -0.453,0.959 -0.793,2.092 -1.02,3.4 -0.228,1.308 -0.34,2.747 -0.34,4.315 0,1.535 0.112,2.947 0.34,4.237 0.227,1.291 0.566,2.406 1.02,3.348 0.454,0.942 1.037,1.674 1.753,2.197 0.714,0.522 1.56,0.784 2.536,0.784 0.872,0 1.63,-0.183 2.275,-0.549 0.645,-0.366 1.194,-0.881 1.648,-1.543 l 1.569,2.667 c -1.395,1.78 -3.313,2.67 -5.753,2.67 z"
   inkscape:connector-curvature="0"
   style="fill:#ffffff" />
		<path
   id="path3979"
   d="m 522.477,228.731 c 0,1.64 -0.244,3.096 -0.732,4.368 -0.488,1.273 -1.159,2.354 -2.014,3.243 -0.854,0.889 -1.856,1.568 -3.008,2.039 -1.15,0.472 -2.371,0.707 -3.661,0.707 -1.883,0 -3.618,-0.401 -5.204,-1.203 -1.588,-0.802 -2.869,-1.865 -3.845,-3.191 l 2.249,-2.562 c 0.802,1.15 1.812,2.04 3.034,2.667 1.22,0.628 2.458,0.942 3.713,0.942 1.674,0 3.077,-0.593 4.211,-1.779 1.133,-1.185 1.7,-2.877 1.7,-5.073 0,-1.046 -0.175,-1.97 -0.523,-2.772 -0.349,-0.802 -0.819,-1.517 -1.412,-2.145 -0.593,-0.628 -1.264,-1.186 -2.014,-1.674 -0.75,-0.488 -1.543,-0.941 -2.38,-1.36 -1.012,-0.488 -1.971,-1.038 -2.877,-1.648 -0.907,-0.61 -1.7,-1.316 -2.38,-2.118 -0.68,-0.802 -1.229,-1.752 -1.647,-2.851 -0.419,-1.098 -0.628,-2.38 -0.628,-3.844 0,-1.708 0.262,-3.199 0.784,-4.473 0.523,-1.272 1.229,-2.336 2.119,-3.19 0.889,-0.854 1.891,-1.491 3.008,-1.909 1.115,-0.418 2.283,-0.628 3.504,-0.628 1.674,0 3.182,0.288 4.524,0.863 1.343,0.575 2.467,1.474 3.374,2.694 l -2.249,2.563 c -0.698,-1.011 -1.517,-1.734 -2.458,-2.171 -0.942,-0.436 -1.971,-0.654 -3.087,-0.654 -0.732,0 -1.456,0.131 -2.17,0.392 -0.716,0.262 -1.353,0.672 -1.91,1.229 -0.558,0.558 -1.012,1.273 -1.359,2.145 -0.35,0.872 -0.523,1.901 -0.523,3.086 0,1.046 0.157,1.954 0.471,2.72 0.314,0.768 0.741,1.447 1.282,2.04 0.54,0.593 1.168,1.116 1.883,1.569 0.714,0.454 1.455,0.872 2.223,1.255 0.977,0.489 1.943,1.046 2.903,1.674 0.959,0.627 1.821,1.36 2.589,2.197 0.767,0.836 1.378,1.814 1.831,2.929 0.452,1.117 0.679,2.424 0.679,3.923 z"
   inkscape:connector-curvature="0"
   style="fill:#ffffff" />
		<path
   id="path3981"
   d="m 534.821,243.744 c -0.28,1.115 -0.602,2.108 -0.968,2.978 -0.366,0.87 -0.811,1.596 -1.334,2.18 -0.523,0.582 -1.125,1.037 -1.805,1.363 -0.68,0.325 -1.491,0.488 -2.433,0.488 -0.488,0 -0.977,-0.043 -1.464,-0.128 -0.489,-0.087 -0.89,-0.181 -1.203,-0.284 l 0.471,-3.04 c 0.243,0.069 0.54,0.139 0.889,0.209 0.349,0.069 0.697,0.104 1.047,0.104 1.011,0 1.769,-0.349 2.274,-1.046 0.506,-0.698 0.916,-1.656 1.229,-2.877 l 1.151,-4.498 -7.532,-26.886 h 3.661 l 5.597,21.917 h 0.104 l 4.97,-21.917 h 3.504 z"
   inkscape:connector-curvature="0"
   style="fill:#ffffff" />
		<path
   id="path3983"
   d="m 557.784,216.753 c -0.454,-0.767 -1.038,-1.386 -1.753,-1.857 -0.715,-0.471 -1.578,-0.707 -2.589,-0.707 -1.116,0 -2.032,0.411 -2.746,1.229 -0.715,0.82 -1.072,1.892 -1.072,3.217 0,1.395 0.348,2.406 1.046,3.034 0.697,0.628 1.743,1.203 3.139,1.727 0.697,0.279 1.395,0.619 2.092,1.02 0.697,0.401 1.316,0.898 1.857,1.491 0.54,0.593 0.984,1.299 1.334,2.118 0.348,0.819 0.522,1.805 0.522,2.955 0,2.546 -0.688,4.525 -2.065,5.938 -1.378,1.412 -3.165,2.118 -5.362,2.118 -1.464,0 -2.807,-0.34 -4.027,-1.02 -1.221,-0.681 -2.231,-1.596 -3.033,-2.747 l 2.092,-2.249 c 0.593,0.907 1.299,1.648 2.118,2.224 0.819,0.576 1.787,0.862 2.903,0.862 1.221,0 2.205,-0.444 2.955,-1.333 0.75,-0.89 1.125,-2.066 1.125,-3.531 0,-0.837 -0.14,-1.543 -0.419,-2.118 -0.279,-0.575 -0.646,-1.055 -1.098,-1.438 -0.454,-0.384 -0.968,-0.715 -1.543,-0.994 -0.576,-0.278 -1.178,-0.54 -1.805,-0.784 -0.663,-0.244 -1.3,-0.54 -1.909,-0.89 -0.611,-0.348 -1.16,-0.802 -1.648,-1.359 -0.488,-0.557 -0.881,-1.229 -1.177,-2.014 -0.297,-0.785 -0.444,-1.734 -0.444,-2.851 0,-1.08 0.183,-2.074 0.549,-2.981 0.366,-0.906 0.881,-1.682 1.543,-2.328 0.662,-0.645 1.421,-1.151 2.275,-1.517 0.854,-0.366 1.787,-0.549 2.799,-0.549 1.465,0 2.729,0.288 3.792,0.863 1.063,0.576 1.927,1.317 2.59,2.223 z"
   inkscape:connector-curvature="0"
   style="fill:#ffffff" />
		<path
   id="path3985"
   d="m 572.691,238.67 c -0.559,0.139 -1.134,0.209 -1.727,0.209 -1.813,0 -3.095,-0.627 -3.845,-1.883 -0.75,-1.255 -1.124,-2.929 -1.124,-5.021 V 215.08 h -3.4 v -2.825 h 3.348 v -7.166 h 3.4 v 7.166 h 4.603 v 2.825 h -4.603 v 16.267 c 0,1.569 0.227,2.712 0.68,3.427 0.453,0.715 1.133,1.072 2.04,1.072 0.313,0 0.645,-0.044 0.994,-0.131 0.348,-0.087 0.645,-0.184 0.889,-0.288 l 0.157,2.772 c -0.383,0.174 -0.854,0.331 -1.412,0.471 z"
   inkscape:connector-curvature="0"
   style="fill:#ffffff" />
		<path
   id="path3987"
   d="m 580.643,225.959 c 0,1.431 0.122,2.746 0.367,3.949 0.245,1.203 0.604,2.25 1.077,3.139 0.474,0.89 1.069,1.587 1.788,2.093 0.718,0.506 1.568,0.758 2.55,0.758 1.261,0 2.276,-0.383 3.048,-1.15 0.771,-0.767 1.367,-1.691 1.788,-2.772 l 2.615,1.517 c -0.628,1.569 -1.562,2.887 -2.799,3.949 -1.238,1.063 -2.816,1.596 -4.733,1.596 -2.895,0 -5.145,-1.221 -6.748,-3.661 -1.604,-2.44 -2.406,-5.807 -2.406,-10.096 0,-2.022 0.209,-3.888 0.626,-5.597 0.417,-1.708 1.017,-3.173 1.8,-4.394 0.782,-1.22 1.738,-2.171 2.867,-2.851 1.13,-0.68 2.391,-1.02 3.782,-1.02 1.529,0 2.823,0.332 3.885,0.994 1.061,0.663 1.921,1.569 2.581,2.72 0.661,1.15 1.138,2.494 1.434,4.027 0.296,1.535 0.444,3.174 0.444,4.917 v 1.883 h -13.966 z m 10.513,-2.877 c 0,-2.615 -0.404,-4.715 -1.21,-6.303 -0.806,-1.586 -2.067,-2.38 -3.785,-2.38 -1.017,0 -1.865,0.306 -2.549,0.916 -0.684,0.61 -1.244,1.36 -1.682,2.249 -0.438,0.889 -0.754,1.84 -0.947,2.851 -0.192,1.012 -0.289,1.901 -0.289,2.667 z"
   inkscape:connector-curvature="0"
   style="fill:#ffffff" />
		<path
   id="path3989"
   d="m 606.812,213.065 c 1.093,-1.098 2.509,-1.647 4.245,-1.647 0.938,0 1.744,0.166 2.422,0.497 0.677,0.332 1.25,0.768 1.719,1.308 0.47,0.541 0.834,1.177 1.095,1.909 0.26,0.732 0.46,1.482 0.599,2.249 h 0.104 c 0.207,-0.767 0.502,-1.508 0.885,-2.223 0.383,-0.714 0.859,-1.351 1.434,-1.909 0.573,-0.557 1.232,-1.002 1.979,-1.334 0.747,-0.331 1.589,-0.497 2.527,-0.497 1.39,0 2.501,0.296 3.334,0.889 0.834,0.593 1.484,1.369 1.954,2.328 0.469,0.959 0.781,2.04 0.938,3.243 0.157,1.203 0.235,2.398 0.235,3.583 v 16.738 h -3.453 v -16.738 c 0,-0.802 -0.044,-1.613 -0.13,-2.432 -0.088,-0.819 -0.271,-1.569 -0.55,-2.25 -0.279,-0.681 -0.688,-1.237 -1.229,-1.674 -0.541,-0.436 -1.264,-0.654 -2.17,-0.654 -0.837,0 -1.596,0.235 -2.275,0.706 -0.681,0.471 -1.248,1.117 -1.7,1.936 -0.454,0.82 -0.803,1.761 -1.046,2.825 -0.245,1.064 -0.366,2.17 -0.366,3.321 v 14.96 h -3.453 v -16.738 c 0,-0.802 -0.043,-1.622 -0.13,-2.458 -0.086,-0.837 -0.261,-1.595 -0.521,-2.275 -0.26,-0.68 -0.658,-1.229 -1.196,-1.647 -0.538,-0.418 -1.24,-0.628 -2.106,-0.628 -0.867,0 -1.63,0.235 -2.289,0.706 -0.658,0.471 -1.223,1.117 -1.69,1.936 -0.468,0.82 -0.823,1.761 -1.066,2.825 -0.242,1.064 -0.363,2.17 -0.363,3.321 v 14.96 h -3.452 v -19.406 c 0,-0.557 -0.01,-1.159 -0.026,-1.804 -0.019,-0.645 -0.035,-1.273 -0.053,-1.883 -0.018,-0.61 -0.035,-1.168 -0.052,-1.674 -0.019,-0.505 -0.045,-0.897 -0.079,-1.177 h 3.4 c 0.069,0.663 0.122,1.464 0.157,2.406 0.034,0.941 0.052,1.831 0.052,2.667 h 0.104 c 0.379,-1.745 1.118,-3.166 2.212,-4.265 z"
   inkscape:connector-curvature="0"
   style="fill:#ffffff" />
		<path
   id="path3991"
   d="m 648.065,216.753 c -0.454,-0.767 -1.038,-1.386 -1.753,-1.857 -0.715,-0.471 -1.578,-0.707 -2.589,-0.707 -1.116,0 -2.032,0.411 -2.746,1.229 -0.715,0.82 -1.072,1.892 -1.072,3.217 0,1.395 0.348,2.406 1.046,3.034 0.697,0.628 1.743,1.203 3.139,1.727 0.697,0.279 1.395,0.619 2.092,1.02 0.697,0.401 1.316,0.898 1.857,1.491 0.54,0.593 0.984,1.299 1.334,2.118 0.348,0.819 0.522,1.805 0.522,2.955 0,2.546 -0.688,4.525 -2.065,5.938 -1.378,1.412 -3.165,2.118 -5.362,2.118 -1.464,0 -2.807,-0.34 -4.027,-1.02 -1.221,-0.681 -2.231,-1.596 -3.033,-2.747 l 2.092,-2.249 c 0.593,0.907 1.299,1.648 2.118,2.224 0.819,0.576 1.787,0.862 2.903,0.862 1.221,0 2.205,-0.444 2.955,-1.333 0.75,-0.89 1.125,-2.066 1.125,-3.531 0,-0.837 -0.14,-1.543 -0.419,-2.118 -0.279,-0.575 -0.646,-1.055 -1.098,-1.438 -0.454,-0.384 -0.968,-0.715 -1.543,-0.994 -0.576,-0.278 -1.178,-0.54 -1.805,-0.784 -0.663,-0.244 -1.3,-0.54 -1.909,-0.89 -0.611,-0.348 -1.16,-0.802 -1.648,-1.359 -0.488,-0.557 -0.881,-1.229 -1.177,-2.014 -0.297,-0.785 -0.444,-1.734 -0.444,-2.851 0,-1.08 0.183,-2.074 0.549,-2.981 0.366,-0.906 0.881,-1.682 1.543,-2.328 0.662,-0.645 1.421,-1.151 2.275,-1.517 0.854,-0.366 1.787,-0.549 2.799,-0.549 1.465,0 2.729,0.288 3.792,0.863 1.063,0.576 1.927,1.317 2.59,2.223 z"
   inkscape:connector-curvature="0"
   style="fill:#ffffff" />
		<path
   id="path3993"
   d="m 665.85,238.199 v -37.034 h 14.907 v 3.243 h -11.351 v 12.972 h 10.618 v 3.139 h -10.618 v 14.385 h 11.874 v 3.295 z"
   inkscape:connector-curvature="0"
   style="fill:#ffffff" />
		<path
   id="path3995"
   d="m 700.79,238.199 v -16.738 c 0,-0.802 -0.044,-1.613 -0.131,-2.432 -0.087,-0.819 -0.279,-1.569 -0.575,-2.25 -0.297,-0.68 -0.715,-1.237 -1.255,-1.674 -0.541,-0.436 -1.247,-0.654 -2.119,-0.654 -0.872,0 -1.647,0.235 -2.327,0.706 -0.68,0.471 -1.256,1.117 -1.727,1.936 -0.471,0.82 -0.837,1.761 -1.099,2.825 -0.261,1.064 -0.392,2.17 -0.392,3.321 v 14.96 h -3.452 v -19.406 c 0,-0.557 -0.01,-1.159 -0.026,-1.804 -0.019,-0.645 -0.035,-1.273 -0.053,-1.883 -0.018,-0.61 -0.035,-1.168 -0.052,-1.674 -0.019,-0.505 -0.045,-0.897 -0.079,-1.177 h 3.348 c 0.069,0.663 0.122,1.464 0.157,2.406 0.034,0.941 0.053,1.831 0.053,2.667 h 0.104 c 0.487,-1.743 1.289,-3.165 2.406,-4.263 1.115,-1.098 2.511,-1.647 4.185,-1.647 1.394,0 2.519,0.296 3.373,0.889 0.854,0.593 1.509,1.369 1.962,2.328 0.453,0.959 0.759,2.04 0.915,3.243 0.157,1.203 0.235,2.398 0.235,3.583 v 16.738 z"
   inkscape:connector-curvature="0"
   style="fill:#ffffff" />
		<path
   id="path3997"
   d="m 728.408,237.833 c 0,1.848 -0.148,3.557 -0.444,5.126 -0.297,1.569 -0.794,2.93 -1.491,4.08 -0.698,1.15 -1.64,2.058 -2.824,2.72 -1.187,0.662 -2.668,0.994 -4.446,0.994 -1.709,0 -3.305,-0.393 -4.786,-1.177 -1.482,-0.785 -2.677,-1.84 -3.583,-3.165 l 2.249,-2.406 c 0.697,1.081 1.577,1.953 2.642,2.616 1.063,0.662 2.258,0.993 3.583,0.993 1.15,0 2.101,-0.244 2.851,-0.732 0.75,-0.488 1.334,-1.168 1.753,-2.04 0.418,-0.872 0.714,-1.9 0.889,-3.086 0.174,-1.186 0.262,-2.493 0.262,-3.923 v -4.289 h -0.104 c -0.419,1.569 -1.116,2.877 -2.093,3.923 -0.977,1.046 -2.354,1.569 -4.132,1.569 -1.326,0 -2.494,-0.349 -3.505,-1.046 -1.012,-0.697 -1.866,-1.665 -2.562,-2.903 -0.698,-1.237 -1.229,-2.702 -1.596,-4.394 -0.367,-1.692 -0.55,-3.548 -0.55,-5.571 0,-2.021 0.175,-3.871 0.523,-5.544 0.348,-1.673 0.863,-3.112 1.543,-4.315 0.68,-1.203 1.534,-2.145 2.563,-2.824 1.028,-0.68 2.205,-1.02 3.53,-1.02 1.569,0 2.903,0.479 4.002,1.438 1.099,0.959 1.839,2.223 2.223,3.792 h 0.157 v -4.394 h 3.348 v 25.578 z m -3.347,-12.606 c 0,-1.498 -0.113,-2.911 -0.34,-4.236 -0.228,-1.325 -0.575,-2.476 -1.047,-3.453 -0.471,-0.976 -1.055,-1.743 -1.752,-2.301 -0.698,-0.558 -1.5,-0.837 -2.406,-0.837 -0.941,0 -1.752,0.279 -2.432,0.837 -0.681,0.558 -1.248,1.316 -1.7,2.275 -0.454,0.959 -0.785,2.101 -0.994,3.426 -0.209,1.326 -0.313,2.755 -0.313,4.289 0,1.5 0.104,2.903 0.313,4.211 0.209,1.308 0.54,2.45 0.994,3.427 0.452,0.977 1.02,1.744 1.7,2.301 0.68,0.559 1.49,0.837 2.432,0.837 0.942,0 1.753,-0.278 2.433,-0.837 0.68,-0.557 1.255,-1.315 1.726,-2.275 0.472,-0.958 0.819,-2.092 1.047,-3.399 0.225,-1.309 0.339,-2.73 0.339,-4.265 z"
   inkscape:connector-curvature="0"
   style="fill:#ffffff" />
		<path
   id="path3999"
   d="m 740.491,204.304 c 0,0.732 -0.228,1.333 -0.681,1.805 -0.453,0.471 -0.993,0.706 -1.621,0.706 -0.663,0 -1.212,-0.235 -1.647,-0.706 -0.437,-0.471 -0.654,-1.073 -0.654,-1.805 0,-0.697 0.218,-1.29 0.654,-1.779 0.436,-0.488 0.984,-0.732 1.647,-0.732 0.662,0 1.211,0.244 1.647,0.732 0.436,0.489 0.655,1.082 0.655,1.779 z m -4.028,33.895 v -25.944 h 3.452 v 25.944 z"
   inkscape:connector-curvature="0"
   style="fill:#ffffff" />
		<path
   id="path4001"
   d="m 761.256,238.199 v -16.738 c 0,-0.802 -0.044,-1.613 -0.131,-2.432 -0.087,-0.819 -0.279,-1.569 -0.575,-2.25 -0.297,-0.68 -0.715,-1.237 -1.255,-1.674 -0.541,-0.436 -1.247,-0.654 -2.119,-0.654 -0.872,0 -1.647,0.235 -2.327,0.706 -0.68,0.471 -1.256,1.117 -1.727,1.936 -0.471,0.82 -0.837,1.761 -1.099,2.825 -0.261,1.064 -0.392,2.17 -0.392,3.321 v 14.96 h -3.452 v -19.406 c 0,-0.557 -0.01,-1.159 -0.026,-1.804 -0.019,-0.645 -0.035,-1.273 -0.053,-1.883 -0.018,-0.61 -0.035,-1.168 -0.052,-1.674 -0.019,-0.505 -0.045,-0.897 -0.079,-1.177 h 3.348 c 0.069,0.663 0.122,1.464 0.157,2.406 0.034,0.941 0.053,1.831 0.053,2.667 h 0.104 c 0.487,-1.743 1.289,-3.165 2.406,-4.263 1.115,-1.098 2.511,-1.647 4.185,-1.647 1.394,0 2.519,0.296 3.373,0.889 0.854,0.593 1.509,1.369 1.962,2.328 0.453,0.959 0.759,2.04 0.915,3.243 0.157,1.203 0.235,2.398 0.235,3.583 v 16.738 z"
   inkscape:connector-curvature="0"
   style="fill:#ffffff" />
		<path
   id="path4003"
   d="m 774.438,225.959 c 0,1.431 0.122,2.746 0.367,3.949 0.245,1.203 0.604,2.25 1.077,3.139 0.474,0.89 1.069,1.587 1.788,2.093 0.718,0.506 1.568,0.758 2.55,0.758 1.261,0 2.276,-0.383 3.048,-1.15 0.771,-0.767 1.367,-1.691 1.788,-2.772 l 2.615,1.517 c -0.628,1.569 -1.562,2.887 -2.799,3.949 -1.238,1.063 -2.816,1.596 -4.733,1.596 -2.895,0 -5.145,-1.221 -6.748,-3.661 -1.604,-2.44 -2.406,-5.807 -2.406,-10.096 0,-2.022 0.209,-3.888 0.626,-5.597 0.417,-1.708 1.017,-3.173 1.8,-4.394 0.782,-1.22 1.738,-2.171 2.867,-2.851 1.13,-0.68 2.391,-1.02 3.782,-1.02 1.529,0 2.823,0.332 3.885,0.994 1.061,0.663 1.921,1.569 2.581,2.72 0.661,1.15 1.138,2.494 1.434,4.027 0.296,1.535 0.444,3.174 0.444,4.917 v 1.883 h -13.966 z m 10.513,-2.877 c 0,-2.615 -0.404,-4.715 -1.21,-6.303 -0.806,-1.586 -2.067,-2.38 -3.785,-2.38 -1.017,0 -1.865,0.306 -2.549,0.916 -0.684,0.61 -1.244,1.36 -1.682,2.249 -0.438,0.889 -0.754,1.84 -0.947,2.851 -0.192,1.012 -0.289,1.901 -0.289,2.667 z"
   inkscape:connector-curvature="0"
   style="fill:#ffffff" />
		<path
   id="path4005"
   d="m 796.562,225.959 c 0,1.431 0.122,2.746 0.367,3.949 0.245,1.203 0.604,2.25 1.077,3.139 0.474,0.89 1.069,1.587 1.788,2.093 0.718,0.506 1.568,0.758 2.55,0.758 1.261,0 2.276,-0.383 3.048,-1.15 0.771,-0.767 1.367,-1.691 1.788,-2.772 l 2.615,1.517 c -0.628,1.569 -1.562,2.887 -2.799,3.949 -1.238,1.063 -2.816,1.596 -4.733,1.596 -2.895,0 -5.145,-1.221 -6.748,-3.661 -1.604,-2.44 -2.406,-5.807 -2.406,-10.096 0,-2.022 0.209,-3.888 0.626,-5.597 0.417,-1.708 1.017,-3.173 1.8,-4.394 0.782,-1.22 1.738,-2.171 2.867,-2.851 1.13,-0.68 2.391,-1.02 3.782,-1.02 1.529,0 2.823,0.332 3.885,0.994 1.061,0.663 1.921,1.569 2.581,2.72 0.661,1.15 1.138,2.494 1.434,4.027 0.296,1.535 0.444,3.174 0.444,4.917 v 1.883 h -13.966 z m 10.514,-2.877 c 0,-2.615 -0.404,-4.715 -1.21,-6.303 -0.806,-1.586 -2.067,-2.38 -3.785,-2.38 -1.017,0 -1.865,0.306 -2.549,0.916 -0.684,0.61 -1.244,1.36 -1.682,2.249 -0.438,0.889 -0.754,1.84 -0.947,2.851 -0.192,1.012 -0.289,1.901 -0.289,2.667 z"
   inkscape:connector-curvature="0"
   style="fill:#ffffff" />
		<path
   id="path4007"
   d="m 822.715,212.987 c 1.011,-1.011 2.162,-1.517 3.452,-1.517 0.278,0 0.488,0.018 0.628,0.052 l -0.104,3.557 c -0.14,-0.035 -0.271,-0.061 -0.393,-0.079 -0.123,-0.017 -0.271,-0.026 -0.444,-0.026 -0.872,0 -1.648,0.297 -2.328,0.889 -0.68,0.594 -1.247,1.36 -1.7,2.302 -0.453,0.942 -0.793,2.014 -1.02,3.217 -0.228,1.204 -0.34,2.398 -0.34,3.583 v 13.233 h -3.452 v -19.406 c 0,-0.557 -0.01,-1.159 -0.026,-1.804 -0.019,-0.645 -0.035,-1.273 -0.053,-1.883 -0.018,-0.61 -0.035,-1.168 -0.052,-1.674 -0.019,-0.505 -0.045,-0.897 -0.079,-1.177 h 3.348 c 0.069,0.663 0.122,1.491 0.157,2.484 0.034,0.994 0.053,2.049 0.053,3.165 h 0.104 c 0.487,-2.265 1.237,-3.904 2.249,-4.916 z"
   inkscape:connector-curvature="0"
   style="fill:#ffffff" />
		<path
   id="path4009"
   d="m 835.163,204.304 c 0,0.732 -0.228,1.333 -0.681,1.805 -0.453,0.471 -0.993,0.706 -1.621,0.706 -0.663,0 -1.212,-0.235 -1.647,-0.706 -0.437,-0.471 -0.654,-1.073 -0.654,-1.805 0,-0.697 0.218,-1.29 0.654,-1.779 0.436,-0.488 0.984,-0.732 1.647,-0.732 0.662,0 1.211,0.244 1.647,0.732 0.436,0.489 0.655,1.082 0.655,1.779 z m -4.028,33.895 v -25.944 h 3.452 v 25.944 z"
   inkscape:connector-curvature="0"
   style="fill:#ffffff" />
		<path
   id="path4011"
   d="m 855.928,238.199 v -16.738 c 0,-0.802 -0.044,-1.613 -0.131,-2.432 -0.087,-0.819 -0.279,-1.569 -0.575,-2.25 -0.297,-0.68 -0.715,-1.237 -1.255,-1.674 -0.541,-0.436 -1.247,-0.654 -2.119,-0.654 -0.872,0 -1.647,0.235 -2.327,0.706 -0.68,0.471 -1.256,1.117 -1.727,1.936 -0.471,0.82 -0.837,1.761 -1.099,2.825 -0.261,1.064 -0.392,2.17 -0.392,3.321 v 14.96 h -3.452 v -19.406 c 0,-0.557 -0.01,-1.159 -0.026,-1.804 -0.019,-0.645 -0.035,-1.273 -0.053,-1.883 -0.018,-0.61 -0.035,-1.168 -0.052,-1.674 -0.019,-0.505 -0.045,-0.897 -0.079,-1.177 h 3.348 c 0.069,0.663 0.122,1.464 0.157,2.406 0.034,0.941 0.053,1.831 0.053,2.667 h 0.104 c 0.487,-1.743 1.289,-3.165 2.406,-4.263 1.115,-1.098 2.511,-1.647 4.185,-1.647 1.394,0 2.519,0.296 3.373,0.889 0.854,0.593 1.509,1.369 1.962,2.328 0.453,0.959 0.759,2.04 0.915,3.243 0.157,1.203 0.235,2.398 0.235,3.583 v 16.738 z"
   inkscape:connector-curvature="0"
   style="fill:#ffffff" />
		<path
   id="path4013"
   d="m 883.546,237.833 c 0,1.848 -0.148,3.557 -0.444,5.126 -0.297,1.569 -0.794,2.93 -1.491,4.08 -0.698,1.15 -1.64,2.058 -2.824,2.72 -1.187,0.662 -2.668,0.994 -4.446,0.994 -1.709,0 -3.305,-0.393 -4.786,-1.177 -1.482,-0.785 -2.677,-1.84 -3.583,-3.165 l 2.249,-2.406 c 0.697,1.081 1.577,1.953 2.642,2.616 1.063,0.662 2.258,0.993 3.583,0.993 1.15,0 2.101,-0.244 2.851,-0.732 0.75,-0.488 1.334,-1.168 1.753,-2.04 0.418,-0.872 0.714,-1.9 0.889,-3.086 0.174,-1.186 0.262,-2.493 0.262,-3.923 v -4.289 h -0.104 c -0.419,1.569 -1.116,2.877 -2.093,3.923 -0.977,1.046 -2.354,1.569 -4.132,1.569 -1.326,0 -2.494,-0.349 -3.505,-1.046 -1.012,-0.697 -1.866,-1.665 -2.562,-2.903 -0.698,-1.237 -1.229,-2.702 -1.596,-4.394 -0.367,-1.692 -0.55,-3.548 -0.55,-5.571 0,-2.021 0.175,-3.871 0.523,-5.544 0.348,-1.673 0.863,-3.112 1.543,-4.315 0.68,-1.203 1.534,-2.145 2.563,-2.824 1.028,-0.68 2.205,-1.02 3.53,-1.02 1.569,0 2.903,0.479 4.002,1.438 1.099,0.959 1.839,2.223 2.223,3.792 h 0.157 v -4.394 h 3.348 v 25.578 z m -3.348,-12.606 c 0,-1.498 -0.113,-2.911 -0.34,-4.236 -0.228,-1.325 -0.575,-2.476 -1.047,-3.453 -0.471,-0.976 -1.055,-1.743 -1.752,-2.301 -0.698,-0.558 -1.5,-0.837 -2.406,-0.837 -0.941,0 -1.752,0.279 -2.432,0.837 -0.681,0.558 -1.248,1.316 -1.7,2.275 -0.454,0.959 -0.785,2.101 -0.994,3.426 -0.209,1.326 -0.313,2.755 -0.313,4.289 0,1.5 0.104,2.903 0.313,4.211 0.209,1.308 0.54,2.45 0.994,3.427 0.452,0.977 1.02,1.744 1.7,2.301 0.68,0.559 1.49,0.837 2.432,0.837 0.942,0 1.753,-0.278 2.433,-0.837 0.68,-0.557 1.255,-1.315 1.726,-2.275 0.472,-0.958 0.819,-2.092 1.047,-3.399 0.226,-1.309 0.339,-2.73 0.339,-4.265 z"
   inkscape:connector-curvature="0"
   style="fill:#ffffff" />
		<path
   id="path4015"
   d="m 286.419,291.5 c 0,1.64 -0.245,3.096 -0.732,4.368 -0.489,1.273 -1.16,2.354 -2.014,3.243 -0.855,0.889 -1.857,1.568 -3.008,2.039 -1.151,0.472 -2.372,0.707 -3.662,0.707 -1.883,0 -3.618,-0.401 -5.205,-1.203 -1.587,-0.802 -2.869,-1.865 -3.845,-3.191 l 2.25,-2.562 c 0.802,1.15 1.812,2.04 3.034,2.667 1.22,0.628 2.458,0.942 3.714,0.942 1.674,0 3.077,-0.593 4.211,-1.779 1.133,-1.185 1.7,-2.877 1.7,-5.073 0,-1.046 -0.175,-1.97 -0.523,-2.772 -0.349,-0.802 -0.82,-1.517 -1.412,-2.145 -0.594,-0.628 -1.265,-1.186 -2.014,-1.674 -0.75,-0.488 -1.543,-0.941 -2.38,-1.36 -1.012,-0.487 -1.971,-1.037 -2.877,-1.647 -0.907,-0.609 -1.7,-1.315 -2.38,-2.118 -0.68,-0.802 -1.229,-1.753 -1.648,-2.851 -0.418,-1.099 -0.627,-2.38 -0.627,-3.845 0,-1.708 0.262,-3.199 0.785,-4.473 0.523,-1.272 1.229,-2.336 2.118,-3.19 0.889,-0.854 1.892,-1.491 3.008,-1.909 1.116,-0.419 2.284,-0.628 3.504,-0.628 1.674,0 3.182,0.288 4.525,0.863 1.342,0.575 2.466,1.474 3.374,2.693 l -2.249,2.563 c -0.698,-1.011 -1.517,-1.734 -2.458,-2.171 -0.941,-0.436 -1.97,-0.654 -3.086,-0.654 -0.732,0 -1.457,0.131 -2.171,0.393 -0.715,0.262 -1.352,0.672 -1.909,1.229 -0.558,0.559 -1.012,1.273 -1.36,2.145 -0.349,0.872 -0.523,1.901 -0.523,3.086 0,1.046 0.157,1.953 0.471,2.72 0.313,0.768 0.74,1.448 1.281,2.04 0.541,0.594 1.168,1.117 1.883,1.569 0.714,0.454 1.456,0.872 2.223,1.256 0.976,0.488 1.944,1.046 2.903,1.674 0.958,0.628 1.822,1.359 2.589,2.196 0.767,0.837 1.377,1.814 1.831,2.93 0.451,1.115 0.679,2.423 0.679,3.922 z"
   inkscape:connector-curvature="0"
   style="fill:#ffffff" />
		<path
   id="path4017"
   d="m 299.547,301.438 c -0.558,0.139 -1.133,0.209 -1.726,0.209 -1.813,0 -3.095,-0.627 -3.844,-1.883 -0.75,-1.255 -1.125,-2.929 -1.125,-5.021 v -16.896 h -3.4 v -2.824 h 3.348 v -7.166 h 3.4 v 7.166 h 4.603 v 2.824 H 296.2 v 16.268 c 0,1.569 0.227,2.712 0.68,3.427 0.453,0.715 1.133,1.072 2.04,1.072 0.314,0 0.645,-0.044 0.994,-0.131 0.348,-0.087 0.645,-0.184 0.889,-0.288 l 0.157,2.772 c -0.384,0.175 -0.855,0.332 -1.413,0.471 z"
   inkscape:connector-curvature="0"
   style="fill:#ffffff" />
		<path
   id="path4019"
   d="m 308.858,275.023 v 16.738 c 0,0.803 0.043,1.613 0.131,2.433 0.087,0.819 0.279,1.569 0.576,2.249 0.296,0.68 0.706,1.238 1.229,1.674 0.523,0.437 1.237,0.653 2.145,0.653 0.872,0 1.648,-0.235 2.328,-0.706 0.68,-0.471 1.255,-1.115 1.726,-1.936 0.471,-0.818 0.837,-1.76 1.099,-2.824 0.262,-1.063 0.393,-2.171 0.393,-3.321 v -14.96 h 3.452 v 19.406 c 0,0.558 0.008,1.159 0.026,1.805 0.018,0.646 0.035,1.272 0.052,1.883 0.017,0.611 0.035,1.177 0.053,1.7 0.017,0.522 0.043,0.907 0.078,1.15 h -3.348 c -0.07,-0.662 -0.123,-1.465 -0.157,-2.406 -0.035,-0.941 -0.052,-1.831 -0.052,-2.668 h -0.104 c -0.489,1.744 -1.291,3.165 -2.406,4.264 -1.117,1.099 -2.511,1.647 -4.185,1.647 -1.396,0 -2.52,-0.297 -3.374,-0.89 -0.855,-0.592 -1.509,-1.368 -1.961,-2.327 -0.454,-0.959 -0.758,-2.031 -0.916,-3.217 -0.157,-1.186 -0.235,-2.389 -0.235,-3.609 v -16.738 z"
   inkscape:connector-curvature="0"
   style="fill:#ffffff" />
		<path
   id="path4021"
   d="m 343.171,300.968 v -4.655 h -0.104 c -0.418,1.569 -1.117,2.877 -2.092,3.923 -0.977,1.046 -2.354,1.569 -4.132,1.569 -1.326,0 -2.494,-0.349 -3.505,-1.046 -1.012,-0.697 -1.866,-1.665 -2.563,-2.903 -0.698,-1.237 -1.229,-2.702 -1.595,-4.394 -0.366,-1.692 -0.549,-3.548 -0.549,-5.571 0,-2.021 0.174,-3.87 0.523,-5.544 0.348,-1.674 0.863,-3.112 1.543,-4.315 0.68,-1.203 1.534,-2.145 2.563,-2.825 1.028,-0.68 2.205,-1.02 3.53,-1.02 1.569,0 2.895,0.479 3.976,1.438 1.081,0.959 1.813,2.223 2.197,3.792 h 0.105 v -17.993 h 3.452 v 39.544 z m 0,-12.973 c 0,-1.533 -0.114,-2.963 -0.34,-4.289 -0.227,-1.324 -0.575,-2.467 -1.046,-3.426 -0.471,-0.959 -1.055,-1.717 -1.752,-2.275 -0.698,-0.558 -1.5,-0.837 -2.406,-0.837 -0.941,0 -1.752,0.279 -2.432,0.837 -0.68,0.559 -1.247,1.316 -1.7,2.275 -0.454,0.959 -0.785,2.102 -0.994,3.426 -0.209,1.326 -0.314,2.756 -0.314,4.289 0,1.5 0.105,2.903 0.314,4.211 0.209,1.308 0.541,2.45 0.994,3.427 0.453,0.977 1.02,1.744 1.7,2.301 0.68,0.559 1.491,0.837 2.432,0.837 0.942,0 1.752,-0.278 2.433,-0.837 0.68,-0.557 1.255,-1.324 1.726,-2.301 0.471,-0.977 0.819,-2.119 1.046,-3.427 0.225,-1.308 0.339,-2.711 0.339,-4.211 z"
   inkscape:connector-curvature="0"
   style="fill:#ffffff" />
		<path
   id="path4023"
   d="m 356.456,288.728 c 0,1.431 0.123,2.746 0.368,3.949 0.246,1.203 0.604,2.25 1.078,3.139 0.473,0.89 1.069,1.587 1.787,2.093 0.718,0.506 1.568,0.758 2.55,0.758 1.261,0 2.277,-0.383 3.048,-1.15 0.771,-0.767 1.367,-1.691 1.788,-2.772 l 2.615,1.517 c -0.628,1.569 -1.561,2.887 -2.798,3.949 -1.238,1.063 -2.816,1.596 -4.734,1.596 -2.895,0 -5.144,-1.221 -6.748,-3.661 -1.604,-2.44 -2.406,-5.807 -2.406,-10.096 0,-2.022 0.208,-3.888 0.625,-5.597 0.417,-1.708 1.017,-3.173 1.8,-4.394 0.782,-1.221 1.738,-2.171 2.868,-2.852 1.129,-0.68 2.391,-1.02 3.781,-1.02 1.529,0 2.824,0.332 3.885,0.994 1.061,0.662 1.921,1.568 2.582,2.72 0.66,1.15 1.138,2.493 1.434,4.027 0.296,1.535 0.444,3.174 0.444,4.917 v 1.883 z m 10.514,-2.877 c 0,-2.615 -0.403,-4.716 -1.209,-6.303 -0.806,-1.586 -2.068,-2.38 -3.785,-2.38 -1.017,0 -1.866,0.306 -2.549,0.915 -0.683,0.61 -1.244,1.36 -1.682,2.25 -0.438,0.889 -0.753,1.839 -0.946,2.851 -0.193,1.012 -0.29,1.9 -0.29,2.667 z"
   inkscape:connector-curvature="0"
   style="fill:#ffffff" />
		<path
   id="path4025"
   d="M 389.985,300.968 V 284.23 c 0,-0.802 -0.044,-1.612 -0.131,-2.433 -0.087,-0.818 -0.28,-1.569 -0.576,-2.249 -0.296,-0.68 -0.715,-1.237 -1.255,-1.674 -0.541,-0.436 -1.247,-0.653 -2.118,-0.653 -0.872,0 -1.648,0.235 -2.328,0.706 -0.68,0.471 -1.255,1.116 -1.726,1.935 -0.471,0.82 -0.837,1.762 -1.099,2.825 -0.262,1.063 -0.393,2.171 -0.393,3.321 v 14.96 h -3.452 v -19.406 c 0,-0.558 -0.009,-1.159 -0.026,-1.805 -0.018,-0.645 -0.035,-1.272 -0.053,-1.883 -0.018,-0.609 -0.035,-1.168 -0.052,-1.674 -0.018,-0.505 -0.044,-0.897 -0.078,-1.177 h 3.348 c 0.069,0.663 0.122,1.465 0.157,2.406 0.034,0.941 0.052,1.83 0.052,2.667 h 0.104 c 0.488,-1.743 1.29,-3.164 2.406,-4.263 1.116,-1.099 2.511,-1.647 4.185,-1.647 1.395,0 2.519,0.297 3.374,0.889 0.854,0.594 1.508,1.369 1.961,2.328 0.453,0.96 0.758,2.04 0.916,3.243 0.157,1.203 0.235,2.397 0.235,3.583 v 16.738 h -3.451 z"
   inkscape:connector-curvature="0"
   style="fill:#ffffff" />
		<path
   id="path4027"
   d="m 408.291,301.438 c -0.558,0.139 -1.133,0.209 -1.726,0.209 -1.813,0 -3.095,-0.627 -3.844,-1.883 -0.75,-1.255 -1.125,-2.929 -1.125,-5.021 v -16.896 h -3.4 v -2.824 h 3.348 v -7.166 h 3.4 v 7.166 h 4.603 v 2.824 h -4.603 v 16.268 c 0,1.569 0.227,2.712 0.68,3.427 0.453,0.715 1.133,1.072 2.04,1.072 0.314,0 0.645,-0.044 0.994,-0.131 0.348,-0.087 0.645,-0.184 0.889,-0.288 l 0.157,2.772 c -0.385,0.175 -0.855,0.332 -1.413,0.471 z"
   inkscape:connector-curvature="0"
   style="fill:#ffffff" />
		<path
   id="path4029"
   d="m 440.303,291.5 c 0,1.64 -0.245,3.096 -0.732,4.368 -0.489,1.273 -1.16,2.354 -2.014,3.243 -0.855,0.889 -1.857,1.568 -3.008,2.039 -1.151,0.472 -2.372,0.707 -3.662,0.707 -1.883,0 -3.618,-0.401 -5.205,-1.203 -1.587,-0.802 -2.869,-1.865 -3.845,-3.191 l 2.25,-2.562 c 0.802,1.15 1.812,2.04 3.034,2.667 1.22,0.628 2.458,0.942 3.714,0.942 1.674,0 3.077,-0.593 4.211,-1.779 1.133,-1.185 1.7,-2.877 1.7,-5.073 0,-1.046 -0.175,-1.97 -0.523,-2.772 -0.349,-0.802 -0.82,-1.517 -1.412,-2.145 -0.594,-0.628 -1.265,-1.186 -2.014,-1.674 -0.75,-0.488 -1.543,-0.941 -2.38,-1.36 -1.012,-0.487 -1.971,-1.037 -2.877,-1.647 -0.907,-0.609 -1.7,-1.315 -2.38,-2.118 -0.68,-0.802 -1.229,-1.753 -1.648,-2.851 -0.418,-1.099 -0.627,-2.38 -0.627,-3.845 0,-1.708 0.262,-3.199 0.785,-4.473 0.523,-1.272 1.229,-2.336 2.118,-3.19 0.889,-0.854 1.892,-1.491 3.008,-1.909 1.116,-0.419 2.284,-0.628 3.504,-0.628 1.674,0 3.182,0.288 4.525,0.863 1.342,0.575 2.466,1.474 3.374,2.693 l -2.249,2.563 c -0.698,-1.011 -1.517,-1.734 -2.458,-2.171 -0.941,-0.436 -1.97,-0.654 -3.086,-0.654 -0.732,0 -1.457,0.131 -2.171,0.393 -0.715,0.262 -1.352,0.672 -1.909,1.229 -0.558,0.559 -1.012,1.273 -1.36,2.145 -0.349,0.872 -0.523,1.901 -0.523,3.086 0,1.046 0.157,1.953 0.471,2.72 0.313,0.768 0.74,1.448 1.281,2.04 0.541,0.594 1.168,1.117 1.883,1.569 0.714,0.454 1.456,0.872 2.223,1.256 0.976,0.488 1.944,1.046 2.903,1.674 0.958,0.628 1.822,1.359 2.589,2.196 0.767,0.837 1.377,1.814 1.831,2.93 0.452,1.115 0.679,2.423 0.679,3.922 z"
   inkscape:connector-curvature="0"
   style="fill:#ffffff" />
		<path
   id="path4031"
   d="m 463.265,288.048 c 0,2.058 -0.209,3.923 -0.627,5.597 -0.418,1.674 -1.012,3.121 -1.778,4.342 -0.768,1.221 -1.718,2.162 -2.851,2.824 -1.133,0.662 -2.398,0.994 -3.792,0.994 -1.396,0 -2.651,-0.332 -3.766,-0.994 -1.117,-0.662 -2.066,-1.604 -2.851,-2.824 -0.785,-1.22 -1.386,-2.668 -1.805,-4.342 -0.419,-1.674 -0.627,-3.539 -0.627,-5.597 0,-2.058 0.2,-3.94 0.602,-5.649 0.4,-1.708 0.985,-3.173 1.752,-4.394 0.767,-1.221 1.717,-2.162 2.851,-2.824 1.133,-0.662 2.414,-0.994 3.845,-0.994 1.394,0 2.659,0.332 3.792,0.994 1.133,0.662 2.083,1.604 2.851,2.824 0.767,1.221 1.36,2.686 1.778,4.394 0.417,1.708 0.626,3.591 0.626,5.649 z m -3.557,-0.078 c 0,-1.53 -0.114,-2.956 -0.34,-4.279 -0.227,-1.322 -0.567,-2.461 -1.02,-3.418 -0.454,-0.956 -1.02,-1.713 -1.7,-2.27 -0.68,-0.557 -1.491,-0.835 -2.432,-0.835 -0.942,0 -1.762,0.278 -2.458,0.835 -0.698,0.557 -1.265,1.313 -1.7,2.27 -0.437,0.957 -0.768,2.096 -0.994,3.418 -0.228,1.323 -0.34,2.749 -0.34,4.279 0,1.53 0.113,2.939 0.34,4.227 0.226,1.287 0.557,2.418 0.994,3.392 0.436,0.975 1.002,1.73 1.7,2.271 0.697,0.539 1.517,0.808 2.458,0.808 0.941,0 1.76,-0.269 2.458,-0.808 0.697,-0.54 1.263,-1.296 1.7,-2.271 0.436,-0.974 0.767,-2.104 0.994,-3.392 0.227,-1.288 0.34,-2.697 0.34,-4.227 z"
   inkscape:connector-curvature="0"
   style="fill:#ffffff" />
		<path
   id="path4033"
   d="m 477.127,301.805 c -1.465,0 -2.756,-0.34 -3.871,-1.02 -1.117,-0.681 -2.049,-1.622 -2.799,-2.825 -0.75,-1.203 -1.317,-2.649 -1.7,-4.342 -0.384,-1.69 -0.575,-3.564 -0.575,-5.623 0,-2.057 0.191,-3.931 0.575,-5.623 0.383,-1.69 0.959,-3.146 1.726,-4.367 0.767,-1.221 1.708,-2.162 2.825,-2.824 1.117,-0.662 2.405,-0.994 3.87,-0.994 1.326,0 2.459,0.244 3.4,0.732 0.941,0.488 1.691,1.063 2.25,1.726 l -1.832,2.511 c -0.418,-0.592 -0.941,-1.062 -1.568,-1.412 -0.627,-0.348 -1.359,-0.522 -2.197,-0.522 -0.941,0 -1.752,0.271 -2.432,0.811 -0.68,0.541 -1.248,1.29 -1.7,2.249 -0.454,0.959 -0.794,2.092 -1.021,3.4 -0.227,1.308 -0.34,2.746 -0.34,4.314 0,1.535 0.113,2.947 0.34,4.237 0.227,1.291 0.566,2.406 1.021,3.348 0.452,0.941 1.037,1.674 1.753,2.197 0.713,0.522 1.559,0.784 2.535,0.784 0.873,0 1.631,-0.183 2.275,-0.549 0.646,-0.366 1.195,-0.881 1.648,-1.543 l 1.57,2.667 c -1.396,1.778 -3.314,2.668 -5.753,2.668 z"
   inkscape:connector-curvature="0"
   style="fill:#ffffff" />
		<path
   id="path4035"
   d="m 491.354,267.072 c 0,0.732 -0.228,1.334 -0.681,1.805 -0.453,0.471 -0.993,0.706 -1.621,0.706 -0.663,0 -1.212,-0.235 -1.647,-0.706 -0.437,-0.471 -0.654,-1.072 -0.654,-1.805 0,-0.697 0.218,-1.289 0.654,-1.778 0.436,-0.487 0.984,-0.732 1.647,-0.732 0.662,0 1.211,0.245 1.647,0.732 0.436,0.489 0.655,1.081 0.655,1.778 z m -4.029,33.896 v -25.944 h 3.452 v 25.944 z"
   inkscape:connector-curvature="0"
   style="fill:#ffffff" />
		<path
   id="path4037"
   d="m 500.716,288.728 c 0,1.431 0.122,2.746 0.367,3.949 0.245,1.203 0.604,2.25 1.077,3.139 0.474,0.89 1.069,1.587 1.788,2.093 0.718,0.506 1.568,0.758 2.55,0.758 1.261,0 2.276,-0.383 3.048,-1.15 0.771,-0.767 1.367,-1.691 1.788,-2.772 l 2.615,1.517 c -0.628,1.569 -1.562,2.887 -2.799,3.949 -1.238,1.063 -2.816,1.596 -4.733,1.596 -2.895,0 -5.145,-1.221 -6.748,-3.661 -1.604,-2.44 -2.406,-5.807 -2.406,-10.096 0,-2.022 0.209,-3.888 0.626,-5.597 0.417,-1.708 1.017,-3.173 1.8,-4.394 0.782,-1.221 1.738,-2.171 2.867,-2.852 1.13,-0.68 2.391,-1.02 3.782,-1.02 1.529,0 2.823,0.332 3.885,0.994 1.061,0.662 1.921,1.568 2.581,2.72 0.661,1.15 1.138,2.493 1.434,4.027 0.296,1.535 0.444,3.174 0.444,4.917 v 1.883 z m 10.513,-2.877 c 0,-2.615 -0.404,-4.716 -1.21,-6.303 -0.806,-1.586 -2.067,-2.38 -3.785,-2.38 -1.017,0 -1.865,0.306 -2.549,0.915 -0.684,0.61 -1.244,1.36 -1.682,2.25 -0.438,0.889 -0.754,1.839 -0.947,2.851 -0.192,1.012 -0.289,1.9 -0.289,2.667 z"
   inkscape:connector-curvature="0"
   style="fill:#ffffff" />
		<path
   id="path4039"
   d="m 527.967,301.438 c -0.559,0.139 -1.134,0.209 -1.727,0.209 -1.813,0 -3.095,-0.627 -3.845,-1.883 -0.75,-1.255 -1.124,-2.929 -1.124,-5.021 v -16.896 h -3.4 v -2.824 h 3.348 v -7.166 h 3.4 v 7.166 h 4.603 v 2.824 h -4.603 v 16.268 c 0,1.569 0.227,2.712 0.68,3.427 0.453,0.715 1.133,1.072 2.04,1.072 0.313,0 0.645,-0.044 0.994,-0.131 0.348,-0.087 0.645,-0.184 0.889,-0.288 l 0.157,2.772 c -0.384,0.175 -0.855,0.332 -1.412,0.471 z"
   inkscape:connector-curvature="0"
   style="fill:#ffffff" />
		<path
   id="path4041"
   d="m 540.573,306.513 c -0.28,1.115 -0.602,2.108 -0.968,2.978 -0.366,0.87 -0.811,1.596 -1.334,2.18 -0.523,0.582 -1.125,1.037 -1.805,1.363 -0.68,0.325 -1.491,0.488 -2.433,0.488 -0.488,0 -0.977,-0.043 -1.464,-0.128 -0.489,-0.087 -0.89,-0.181 -1.203,-0.284 l 0.471,-3.04 c 0.243,0.069 0.54,0.139 0.889,0.209 0.349,0.069 0.697,0.104 1.047,0.104 1.011,0 1.769,-0.349 2.274,-1.046 0.506,-0.698 0.916,-1.656 1.229,-2.877 l 1.151,-4.498 -7.532,-26.887 h 3.661 l 5.597,21.917 h 0.104 l 4.97,-21.917 h 3.504 z"
   inkscape:connector-curvature="0"
   style="fill:#ffffff" />
	</g>
</g></g></svg>